<svg xmlns="http://www.w3.org/2000/svg" xmlns:xlink="http://www.w3.org/1999/xlink" width="533" zoomAndPan="magnify" viewBox="0 0 399.75 136.499996" height="182" preserveAspectRatio="xMidYMid meet" version="1.0"><defs><g/><clipPath id="7a32f27fe6"><path d="M 184.335938 39.324219 L 212.730469 39.324219 L 212.730469 87 L 184.335938 87 Z M 184.335938 39.324219 " clip-rule="nonzero"/></clipPath><clipPath id="fce1a58432"><path d="M 72 77.308594 L 319.996094 77.308594 L 319.996094 122 L 72 122 Z M 72 77.308594 " clip-rule="nonzero"/></clipPath></defs><g clip-path="url(#7a32f27fe6)"><path fill="#d45454" d="M 212.21875 43.140625 C 211.929688 42.035156 211.171875 40.84375 210.121094 40.324219 C 208.070312 39.324219 205.855469 40.664062 204.523438 42.230469 C 203.695312 43.210938 203.003906 44.328125 202.390625 45.453125 C 201.734375 46.648438 201.167969 47.902344 200.652344 49.167969 C 200.125 50.472656 199.664062 51.804688 199.269531 53.15625 C 198.933594 51.320312 198.339844 49.546875 197.261719 47.980469 C 196.722656 47.207031 196.089844 46.480469 195.390625 45.847656 C 194.824219 45.34375 194.203125 44.867188 193.5 44.570312 C 192.925781 44.320312 192.292969 44.148438 191.664062 44.21875 C 191.007812 44.292969 190.414062 44.570312 189.945312 45.039062 C 188.839844 46.15625 188.59375 47.902344 188.523438 49.394531 C 188.433594 51.527344 188.515625 53.667969 188.777344 55.792969 C 189.035156 57.90625 189.359375 60.101562 189.847656 62.226562 C 190.324219 64.304688 190.933594 66.355469 191.644531 68.363281 C 192.355469 70.371094 193.175781 72.332031 194.164062 74.222656 C 194.398438 74.664062 194.644531 75.085938 194.894531 75.519531 C 193.789062 76.914062 192.671875 78.308594 191.527344 79.675781 C 189.820312 81.710938 187.964844 83.671875 185.921875 85.371094 C 185.445312 85.769531 184.96875 86.15625 184.464844 86.515625 C 184.347656 86.597656 184.445312 86.777344 184.574219 86.703125 C 186.957031 85.445312 188.9375 83.546875 190.78125 81.601562 C 191.710938 80.621094 192.628906 79.628906 193.535156 78.621094 C 194.183594 77.910156 194.839844 77.21875 195.496094 76.515625 C 195.585938 76.660156 195.675781 76.8125 195.769531 76.957031 C 196.308594 77.859375 196.839844 78.757812 197.449219 79.621094 C 197.59375 79.828125 197.746094 80.035156 197.890625 80.242188 C 198.042969 80.457031 198.234375 80.664062 198.367188 80.890625 C 198.503906 81.117188 198.855469 80.910156 198.71875 80.683594 C 198.46875 80.25 198.289062 79.757812 198.0625 79.308594 C 197.828125 78.847656 197.585938 78.390625 197.324219 77.9375 C 196.917969 77.246094 196.523438 76.542969 196.144531 75.832031 C 196.246094 75.726562 196.34375 75.625 196.433594 75.519531 C 197.433594 74.4375 198.421875 73.359375 199.394531 72.25 C 200.382812 71.125 201.355469 69.992188 202.246094 68.796875 C 203.949219 66.511719 205.414062 64.070312 206.828125 61.597656 C 208.195312 59.210938 209.445312 56.753906 210.390625 54.171875 C 210.875 52.851562 211.273438 51.5 211.570312 50.132812 C 211.804688 49.0625 212.054688 47.980469 212.226562 46.902344 C 212.40625 45.667969 212.53125 44.371094 212.21875 43.140625 Z M 210.425781 45.632812 C 210.417969 45.777344 210.398438 45.910156 210.382812 46.054688 C 210.371094 46.109375 210.371094 46.15625 210.363281 46.207031 C 210.355469 46.246094 210.355469 46.28125 210.347656 46.324219 C 210.300781 46.605469 210.257812 46.882812 210.203125 47.164062 C 210.101562 47.703125 209.984375 48.234375 209.867188 48.773438 C 209.597656 50.007812 209.328125 51.222656 208.949219 52.425781 C 208.753906 53.058594 208.539062 53.6875 208.292969 54.308594 C 208.175781 54.621094 208.050781 54.929688 207.925781 55.234375 C 207.917969 55.253906 207.90625 55.28125 207.898438 55.308594 C 207.898438 55.296875 207.90625 55.289062 207.90625 55.28125 C 207.878906 55.359375 207.835938 55.441406 207.808594 55.511719 C 207.746094 55.65625 207.683594 55.8125 207.621094 55.953125 C 207.078125 57.160156 206.484375 58.332031 205.855469 59.492188 C 204.550781 61.886719 203.210938 64.289062 201.671875 66.546875 C 200.878906 67.707031 200.042969 68.839844 199.214844 69.976562 C 199.117188 70.109375 199.007812 70.253906 198.910156 70.390625 C 198.863281 70.453125 198.808594 70.515625 198.765625 70.578125 C 198.738281 70.613281 198.71875 70.640625 198.691406 70.675781 C 198.683594 70.695312 198.566406 70.839844 198.613281 70.792969 C 198.414062 71.046875 198.207031 71.332031 198.007812 71.578125 C 197.566406 72.132812 197.125 72.691406 196.6875 73.25 C 196.296875 73.726562 195.921875 74.214844 195.535156 74.699219 C 194.714844 73.097656 193.894531 71.511719 193.273438 69.8125 C 191.878906 65.96875 190.835938 61.921875 190.304688 57.890625 C 190.035156 55.847656 189.945312 53.792969 189.953125 51.734375 C 189.964844 50.734375 189.972656 49.71875 190.089844 48.726562 C 190.089844 48.710938 190.097656 48.65625 190.097656 48.628906 C 190.097656 48.613281 190.105469 48.59375 190.105469 48.566406 C 190.125 48.476562 190.132812 48.378906 190.152344 48.289062 C 190.1875 48.089844 190.234375 47.902344 190.277344 47.710938 C 190.324219 47.539062 190.367188 47.378906 190.429688 47.214844 C 190.457031 47.152344 190.476562 47.089844 190.503906 47.027344 C 190.519531 46.992188 190.53125 46.964844 190.546875 46.929688 C 190.613281 46.800781 190.675781 46.667969 190.753906 46.550781 C 190.78125 46.503906 190.816406 46.453125 190.84375 46.40625 C 190.84375 46.40625 190.863281 46.390625 190.871094 46.363281 C 190.882812 46.351562 190.890625 46.34375 190.898438 46.335938 C 190.980469 46.246094 191.050781 46.164062 191.140625 46.082031 C 191.152344 46.074219 191.160156 46.066406 191.179688 46.054688 C 191.222656 46.027344 191.257812 46 191.304688 45.976562 C 191.347656 45.949219 191.394531 45.921875 191.4375 45.902344 C 191.539062 45.875 191.644531 45.847656 191.746094 45.820312 C 191.800781 45.820312 191.851562 45.8125 191.90625 45.8125 C 191.96875 45.8125 192.03125 45.8125 192.097656 45.820312 C 192.105469 45.820312 192.113281 45.820312 192.125 45.820312 C 192.238281 45.847656 192.347656 45.867188 192.464844 45.902344 C 192.535156 45.921875 192.601562 45.949219 192.664062 45.976562 C 192.691406 45.984375 192.707031 45.992188 192.71875 45.992188 C 193.003906 46.117188 193.273438 46.28125 193.535156 46.460938 C 193.609375 46.515625 193.679688 46.570312 193.761719 46.621094 C 193.769531 46.621094 193.769531 46.632812 193.777344 46.640625 C 193.789062 46.648438 193.804688 46.660156 193.816406 46.675781 C 193.96875 46.800781 194.121094 46.9375 194.273438 47.074219 C 194.597656 47.371094 194.894531 47.683594 195.183594 48.015625 C 195.253906 48.097656 195.328125 48.179688 195.390625 48.261719 C 195.417969 48.296875 195.453125 48.332031 195.480469 48.367188 C 195.480469 48.367188 195.523438 48.429688 195.550781 48.457031 C 195.578125 48.496094 195.605469 48.53125 195.605469 48.53125 C 195.632812 48.566406 195.660156 48.601562 195.6875 48.636719 C 195.757812 48.738281 195.832031 48.84375 195.902344 48.953125 C 196.136719 49.3125 196.351562 49.691406 196.542969 50.078125 C 196.585938 50.167969 196.632812 50.257812 196.675781 50.355469 C 196.703125 50.410156 196.722656 50.457031 196.75 50.511719 C 196.757812 50.527344 196.765625 50.554688 196.777344 50.574219 C 196.855469 50.761719 196.929688 50.960938 197 51.15625 C 197.144531 51.5625 197.269531 51.976562 197.371094 52.398438 C 197.476562 52.824219 197.566406 53.246094 197.640625 53.679688 C 197.675781 53.886719 197.710938 54.082031 197.730469 54.289062 C 197.703125 54.074219 197.746094 54.425781 197.746094 54.480469 C 197.757812 54.597656 197.773438 54.703125 197.785156 54.820312 C 197.875 55.695312 197.910156 56.566406 197.917969 57.4375 C 197.917969 57.871094 197.910156 58.292969 197.890625 58.726562 C 197.875 59.167969 198.242188 59.535156 198.65625 59.589844 C 199.070312 59.644531 199.519531 59.390625 199.621094 58.960938 C 200.1875 56.503906 200.808594 54.074219 201.644531 51.699219 C 201.859375 51.085938 202.085938 50.484375 202.328125 49.890625 C 202.355469 49.816406 202.382812 49.753906 202.410156 49.683594 C 202.425781 49.636719 202.445312 49.59375 202.460938 49.546875 C 202.472656 49.519531 202.515625 49.421875 202.527344 49.402344 C 202.5625 49.3125 202.605469 49.222656 202.644531 49.132812 C 202.769531 48.84375 202.894531 48.558594 203.03125 48.277344 C 203.570312 47.136719 204.171875 46.011719 204.867188 44.949219 C 205.027344 44.695312 205.199219 44.453125 205.371094 44.203125 C 205.460938 44.085938 205.539062 43.960938 205.628906 43.84375 C 205.640625 43.832031 205.648438 43.824219 205.65625 43.816406 C 205.695312 43.769531 205.730469 43.726562 205.765625 43.679688 C 206.070312 43.3125 206.421875 42.976562 206.792969 42.664062 C 206.835938 42.628906 206.882812 42.601562 206.925781 42.5625 C 207.023438 42.492188 207.125 42.429688 207.230469 42.367188 C 207.324219 42.3125 207.402344 42.265625 207.492188 42.214844 C 207.546875 42.1875 207.601562 42.160156 207.644531 42.132812 C 207.664062 42.125 207.710938 42.105469 207.746094 42.085938 C 207.761719 42.078125 207.773438 42.078125 207.78125 42.078125 C 207.828125 42.058594 207.871094 42.042969 207.917969 42.035156 C 208.023438 41.996094 208.125 41.96875 208.230469 41.941406 C 208.277344 41.933594 208.3125 41.925781 208.355469 41.917969 C 208.4375 41.90625 208.519531 41.90625 208.609375 41.90625 C 208.664062 41.90625 208.707031 41.90625 208.761719 41.917969 C 208.769531 41.917969 208.78125 41.917969 208.789062 41.917969 C 208.808594 41.917969 208.824219 41.925781 208.835938 41.925781 C 208.886719 41.933594 208.933594 41.953125 208.988281 41.960938 C 209.023438 41.96875 209.058594 41.988281 209.105469 41.996094 C 209.183594 42.050781 209.273438 42.085938 209.355469 42.132812 C 209.382812 42.148438 209.410156 42.167969 209.4375 42.1875 C 209.527344 42.265625 209.609375 42.347656 209.6875 42.429688 C 209.714844 42.457031 209.742188 42.492188 209.769531 42.519531 C 209.777344 42.539062 209.796875 42.546875 209.804688 42.5625 C 209.886719 42.679688 209.96875 42.796875 210.03125 42.925781 C 210.101562 43.050781 210.164062 43.175781 210.21875 43.300781 C 210.238281 43.355469 210.257812 43.410156 210.273438 43.464844 C 210.308594 43.582031 210.335938 43.6875 210.363281 43.804688 C 210.382812 43.867188 210.390625 43.933594 210.398438 44.003906 C 210.398438 44.011719 210.398438 44.023438 210.398438 44.023438 C 210.480469 44.542969 210.472656 45.09375 210.425781 45.632812 Z M 210.425781 45.632812 " fill-opacity="1" fill-rule="nonzero"/></g><g clip-path="url(#fce1a58432)"><path fill="#d45454" d="M 152.253906 89.980469 C 152.253906 89.980469 152.238281 89.980469 152.230469 89.980469 C 152.230469 89.980469 152.222656 89.980469 152.21875 89.980469 Z M 307.863281 78.804688 C 307.03125 78.113281 305.925781 78.765625 305.066406 78.238281 C 302.277344 78.015625 299.484375 77.671875 296.6875 77.589844 C 287.617188 77.316406 278.582031 77.707031 269.703125 79.785156 C 266.023438 80.644531 262.375 81.589844 258.941406 83.234375 C 257.667969 83.441406 256.648438 84.203125 255.527344 84.757812 C 253.339844 85.769531 251.109375 86.730469 249.304688 88.40625 C 248.324219 88.875 247.472656 89.53125 246.746094 90.132812 C 245.957031 89.777344 246.613281 88.539062 245.222656 88.40625 C 246.453125 89.484375 245.78125 90.46875 245.128906 91.722656 C 247.019531 90.820312 248.25 89.617188 249.613281 88.632812 C 251.695312 87.429688 253.773438 86.226562 255.855469 85.023438 C 256.941406 84.527344 258.023438 84.035156 259.101562 83.539062 C 259.144531 83.535156 259.191406 83.511719 259.253906 83.46875 C 267.792969 80.324219 276.582031 78.394531 285.710938 78.148438 C 286.28125 78.136719 286.890625 78.378906 287.410156 77.933594 C 291.039062 77.839844 294.660156 77.867188 298.28125 78.136719 C 300.546875 78.296875 302.808594 78.464844 305.050781 78.734375 C 305.882812 78.847656 306.714844 78.960938 307.546875 79.078125 C 310.667969 79.527344 313.738281 80.199219 316.679688 81.335938 C 318.246094 81.945312 318.238281 81.972656 319.703125 81.476562 C 315.5625 80.289062 311.828125 79.070312 307.855469 78.8125 Z M 242.3125 86.734375 C 243.359375 86.75 243.996094 87.765625 245.003906 87.777344 C 244.222656 87.113281 243.460938 86.394531 242.3125 86.734375 Z M 237.429688 84.996094 C 236.84375 84.945312 236.234375 85.101562 235.691406 84.742188 C 235.074219 84.734375 234.453125 84.730469 233.835938 84.722656 C 232.578125 83.960938 231.101562 84.695312 229.816406 84.121094 C 228.367188 84.085938 226.921875 84.050781 225.472656 84.015625 C 224.65625 83.511719 223.761719 83.847656 222.898438 83.800781 C 222.453125 83.800781 222 83.800781 221.550781 83.800781 C 220.691406 83.847656 219.800781 83.519531 218.984375 84.007812 C 216.929688 84.296875 214.824219 83.695312 212.789062 84.386719 C 209.339844 84.289062 205.964844 84.9375 202.570312 85.386719 C 200.816406 85.695312 199.0625 85.996094 197.304688 86.300781 C 196.683594 86.414062 196.0625 86.527344 195.441406 86.636719 C 194.097656 86.945312 192.753906 87.253906 191.410156 87.5625 C 182.480469 89.910156 173.777344 92.890625 165.441406 97.246094 C 166.054688 94.191406 165.34375 93.023438 162.515625 91.796875 C 159.964844 90.6875 157.28125 90.34375 154.546875 90.210938 C 153.789062 89.980469 152.980469 90.28125 152.222656 89.988281 C 151.265625 90.300781 150.253906 89.960938 149.285156 90.210938 C 146.335938 90.324219 143.421875 90.742188 140.488281 91.164062 C 133.132812 92.226562 125.972656 94.113281 118.917969 96.359375 C 110.714844 98.964844 102.777344 102.289062 95.007812 106 C 90.457031 108.175781 86.050781 110.644531 81.820312 113.378906 C 78.570312 115.484375 75.242188 117.574219 72.730469 120.644531 C 72.707031 120.882812 72.703125 121.054688 72.703125 121.210938 C 72.6875 121.050781 72.703125 120.859375 72.730469 120.644531 C 72.414062 120.992188 72.332031 121.40625 72.6875 121.714844 C 73.039062 122.007812 73.441406 121.964844 73.679688 121.476562 C 73.507812 121.558594 73.375 121.601562 73.253906 121.621094 C 73.375 121.589844 73.511719 121.546875 73.679688 121.476562 C 73.898438 120.554688 74.6875 120.058594 75.332031 119.523438 C 80.960938 114.824219 87.199219 111.007812 93.707031 107.699219 C 103.40625 102.769531 113.46875 98.671875 123.925781 95.636719 C 132.714844 93.085938 141.609375 91.007812 150.832031 90.855469 C 154.984375 90.785156 159.105469 90.925781 162.972656 92.742188 C 164.082031 93.265625 165.015625 94.042969 165.035156 95.265625 C 165.046875 96.601562 164.382812 97.707031 163.078125 98.394531 C 161.714844 99.113281 160.453125 100.015625 159.132812 100.8125 C 158.742188 101.050781 158.425781 101.371094 158.621094 101.792969 C 158.875 102.335938 159.273438 102.007812 159.628906 101.796875 C 160.28125 101.421875 161.007812 101.160156 161.601562 100.714844 C 163.921875 98.960938 166.222656 97.183594 168.980469 96.097656 C 170.746094 95.398438 172.433594 94.484375 174.195312 93.769531 C 179.902344 91.464844 185.710938 89.457031 191.710938 88.035156 C 193.054688 87.734375 194.398438 87.429688 195.738281 87.128906 C 196.300781 86.679688 197.132812 87.199219 197.640625 86.582031 C 199.335938 86.421875 201.003906 86.199219 202.640625 85.707031 C 202.691406 85.730469 202.769531 85.714844 202.886719 85.636719 C 206.402344 85.429688 209.867188 84.707031 213.398438 84.644531 C 213.335938 84.617188 213.269531 84.597656 213.214844 84.566406 C 213.277344 84.582031 213.347656 84.597656 213.398438 84.644531 C 218.871094 84.246094 224.339844 84.261719 229.816406 84.617188 C 231.160156 84.722656 232.507812 84.832031 233.851562 84.9375 C 234.363281 84.964844 234.878906 84.988281 235.390625 85.015625 C 235.941406 85.546875 236.773438 85.105469 237.367188 85.574219 C 237.535156 85.707031 237.753906 85.535156 237.792969 85.324219 C 237.859375 85.035156 237.628906 85.023438 237.429688 85 Z M 238.859375 85.800781 C 239.417969 85.882812 239.976562 85.960938 240.535156 86.042969 C 240.558594 85.933594 240.585938 85.820312 240.605469 85.699219 C 240.039062 85.625 239.464844 85.546875 238.898438 85.46875 C 238.886719 85.582031 238.871094 85.6875 238.863281 85.800781 Z M 238.859375 85.800781 " fill-opacity="1" fill-rule="nonzero"/></g><g fill="#000000" fill-opacity="1"><g transform="translate(215.024527, 79.514817)"><g><path d="M 46.546875 -9.515625 C 46.734375 -9.367188 46.847656 -9.171875 46.890625 -8.921875 C 46.941406 -8.671875 46.890625 -8.453125 46.734375 -8.265625 C 46.578125 -8.015625 46.34375 -7.890625 46.03125 -7.890625 C 45.875 -7.890625 45.75 -7.921875 45.65625 -7.984375 C 45.351562 -8.046875 44.519531 -8.113281 43.15625 -8.1875 C 41.789062 -8.269531 40.132812 -8.34375 38.1875 -8.40625 C 37.5625 -5.675781 36.929688 -2.945312 36.296875 -0.21875 C 35.660156 2.5 35.082031 5.128906 34.5625 7.671875 C 33.789062 11.285156 33.191406 14.226562 32.765625 16.5 C 32.347656 18.78125 32.070312 20.539062 31.9375 21.78125 C 31.800781 23.019531 31.734375 23.921875 31.734375 24.484375 C 31.847656 24.296875 31.984375 24.078125 32.140625 23.828125 C 32.265625 23.609375 32.453125 23.46875 32.703125 23.40625 C 32.953125 23.34375 33.171875 23.375 33.359375 23.5 C 33.566406 23.625 33.703125 23.800781 33.765625 24.03125 C 33.828125 24.269531 33.796875 24.5 33.671875 24.71875 C 33.367188 25.269531 33.019531 25.785156 32.625 26.265625 C 32.238281 26.742188 31.816406 26.984375 31.359375 26.984375 C 31.203125 26.984375 31.046875 26.953125 30.890625 26.890625 C 30.609375 26.765625 30.382812 26.507812 30.21875 26.125 C 30.050781 25.738281 29.96875 25.097656 29.96875 24.203125 C 29.96875 23.304688 30.082031 22.050781 30.3125 20.4375 C 30.539062 18.832031 30.898438 16.742188 31.390625 14.171875 C 31.890625 11.597656 32.550781 8.457031 33.375 4.75 C 34.195312 1.050781 35.195312 -3.347656 36.375 -8.453125 C 34.632812 -8.515625 32.789062 -8.566406 30.84375 -8.609375 C 28.894531 -8.660156 27.003906 -8.703125 25.171875 -8.734375 C 25.109375 -8.734375 25.003906 -8.75 24.859375 -8.78125 C 22.898438 -5 20.984375 -1.476562 19.109375 1.78125 C 17.242188 5.050781 15.550781 7.722656 14.03125 9.796875 C 13.070312 11.097656 12.164062 11.945312 11.3125 12.34375 C 10.457031 12.75 9.695312 12.90625 9.03125 12.8125 C 8.363281 12.726562 7.832031 12.5625 7.4375 12.3125 C 6.414062 11.71875 5.546875 10.769531 4.828125 9.46875 C 4.117188 8.175781 3.546875 6.644531 3.109375 4.875 C 2.679688 3.113281 2.425781 1.25 2.34375 -0.71875 C 2.269531 -2.6875 2.378906 -4.628906 2.671875 -6.546875 C 2.960938 -8.472656 3.453125 -10.222656 4.140625 -11.796875 C 5.523438 -14.953125 7.554688 -17.070312 10.234375 -18.15625 C 12.921875 -19.25 16.078125 -19.234375 19.703125 -18.109375 C 19.910156 -18.023438 20.078125 -17.875 20.203125 -17.65625 C 20.328125 -17.4375 20.34375 -17.203125 20.25 -16.953125 C 20.1875 -16.734375 20.046875 -16.570312 19.828125 -16.46875 C 19.617188 -16.363281 19.390625 -16.335938 19.140625 -16.390625 C 18.054688 -16.734375 16.894531 -16.96875 15.65625 -17.09375 C 14.414062 -17.21875 13.179688 -17.128906 11.953125 -16.828125 C 10.734375 -16.535156 9.585938 -15.929688 8.515625 -15.015625 C 7.453125 -14.109375 6.535156 -12.804688 5.765625 -11.109375 C 5.046875 -9.492188 4.5625 -7.769531 4.3125 -5.9375 C 4.070312 -4.113281 4.007812 -2.300781 4.125 -0.5 C 4.25 1.289062 4.503906 2.96875 4.890625 4.53125 C 5.285156 6.09375 5.773438 7.421875 6.359375 8.515625 C 6.953125 9.617188 7.601562 10.375 8.3125 10.78125 C 9.613281 11.519531 11.039062 10.835938 12.59375 8.734375 C 14.039062 6.785156 15.644531 4.269531 17.40625 1.1875 C 19.175781 -1.894531 21.007812 -5.234375 22.90625 -8.828125 C 18.5625 -8.921875 15.101562 -9.015625 12.53125 -9.109375 C 9.96875 -9.203125 8.421875 -9.296875 7.890625 -9.390625 C 7.648438 -9.441406 7.46875 -9.566406 7.34375 -9.765625 C 7.21875 -9.972656 7.171875 -10.203125 7.203125 -10.453125 C 7.265625 -10.703125 7.394531 -10.894531 7.59375 -11.03125 C 7.789062 -11.164062 8.015625 -11.207031 8.265625 -11.15625 C 8.515625 -11.09375 9.109375 -11.035156 10.046875 -10.984375 C 10.992188 -10.941406 12.1875 -10.894531 13.625 -10.84375 C 15.070312 -10.800781 16.671875 -10.753906 18.421875 -10.703125 C 20.171875 -10.660156 21.957031 -10.625 23.78125 -10.59375 C 24.832031 -12.570312 25.875 -14.582031 26.90625 -16.625 C 27.945312 -18.675781 28.984375 -20.691406 30.015625 -22.671875 C 32.484375 -27.597656 34.550781 -31.660156 36.21875 -34.859375 C 37.894531 -38.066406 39.273438 -40.550781 40.359375 -42.3125 C 41.453125 -44.082031 42.34375 -45.285156 43.03125 -45.921875 C 43.726562 -46.554688 44.34375 -46.78125 44.875 -46.59375 C 45.425781 -46.375 45.75 -45.914062 45.84375 -45.21875 C 45.9375 -44.519531 45.9375 -43.660156 45.84375 -42.640625 C 45.664062 -40.628906 45.125 -37.625 44.21875 -33.625 C 43.945312 -32.332031 43.550781 -30.640625 43.03125 -28.546875 C 42.519531 -26.453125 41.972656 -24.148438 41.390625 -21.640625 C 40.953125 -19.878906 40.5 -18.03125 40.03125 -16.09375 C 39.570312 -14.15625 39.097656 -12.179688 38.609375 -10.171875 C 40.710938 -10.109375 42.304688 -10.035156 43.390625 -9.953125 C 44.472656 -9.878906 45.238281 -9.8125 45.6875 -9.75 C 46.132812 -9.6875 46.421875 -9.609375 46.546875 -9.515625 Z M 25.78125 -10.546875 C 28.101562 -10.484375 30.171875 -10.425781 31.984375 -10.375 C 33.796875 -10.332031 35.398438 -10.28125 36.796875 -10.21875 C 37.660156 -13.84375 38.601562 -17.789062 39.625 -22.0625 C 40.238281 -24.570312 40.796875 -26.863281 41.296875 -28.9375 C 41.796875 -31.007812 42.195312 -32.710938 42.5 -34.046875 C 43 -36.367188 43.367188 -38.242188 43.609375 -39.671875 C 43.859375 -41.097656 44.015625 -42.1875 44.078125 -42.9375 C 44.140625 -43.695312 44.15625 -44.234375 44.125 -44.546875 C 43.601562 -44.023438 42.875 -42.992188 41.9375 -41.453125 C 41.007812 -39.921875 39.960938 -38.070312 38.796875 -35.90625 C 37.640625 -33.738281 36.441406 -31.429688 35.203125 -28.984375 C 33.972656 -26.535156 32.769531 -24.164062 31.59375 -21.875 C 30.65625 -20.019531 29.695312 -18.128906 28.71875 -16.203125 C 27.75 -14.285156 26.769531 -12.398438 25.78125 -10.546875 Z M 49.28125 -54.25 C 49.5 -54.101562 49.613281 -53.90625 49.625 -53.65625 C 49.644531 -53.40625 49.578125 -53.1875 49.421875 -53 L 46.453125 -49.28125 C 46.265625 -49.039062 46.03125 -48.921875 45.75 -48.921875 C 45.539062 -48.921875 45.359375 -48.992188 45.203125 -49.140625 C 45.015625 -49.296875 44.90625 -49.488281 44.875 -49.71875 C 44.84375 -49.957031 44.90625 -50.1875 45.0625 -50.40625 L 48.03125 -54.125 C 48.1875 -54.300781 48.390625 -54.40625 48.640625 -54.4375 C 48.890625 -54.46875 49.101562 -54.40625 49.28125 -54.25 Z M 49.28125 -54.25 "/></g></g></g><g fill="#000000" fill-opacity="1"><g transform="translate(266.998737, 79.514817)"><g><path d="M 13.65625 -43.53125 C 14.0625 -42.9375 14.066406 -41.738281 13.671875 -39.9375 C 13.285156 -38.144531 12.488281 -35.925781 11.28125 -33.28125 C 10.070312 -30.632812 8.460938 -27.703125 6.453125 -24.484375 C 6.421875 -24.453125 6.390625 -24.421875 6.359375 -24.390625 C 5.554688 -21.109375 4.757812 -17.765625 3.96875 -14.359375 C 3.175781 -10.953125 2.425781 -7.601562 1.71875 -4.3125 C 1.007812 -1.03125 0.363281 2.054688 -0.21875 4.953125 C -0.8125 7.847656 -1.316406 10.425781 -1.734375 12.6875 C -2.160156 14.945312 -2.460938 16.753906 -2.640625 18.109375 C -2.609375 18.109375 -2.582031 18.109375 -2.5625 18.109375 C -2.3125 18.203125 -2.128906 18.359375 -2.015625 18.578125 C -1.910156 18.796875 -1.90625 19.03125 -2 19.28125 C -2.21875 19.863281 -2.441406 20.394531 -2.671875 20.875 C -2.898438 21.351562 -3.21875 21.59375 -3.625 21.59375 C -3.71875 21.59375 -3.828125 21.578125 -3.953125 21.546875 C -4.222656 21.460938 -4.421875 21.269531 -4.546875 20.96875 C -4.671875 20.675781 -4.6875 20.085938 -4.59375 19.203125 C -4.5 18.328125 -4.300781 16.972656 -4 15.140625 C -3.4375 11.796875 -2.597656 7.429688 -1.484375 2.046875 C -0.679688 -1.734375 0.160156 -5.582031 1.046875 -9.5 C 1.929688 -13.414062 2.804688 -17.191406 3.671875 -20.828125 C 4.535156 -24.472656 5.367188 -27.78125 6.171875 -30.75 C 6.328125 -31.34375 6.5625 -32.164062 6.875 -33.21875 C 7.1875 -34.269531 7.539062 -35.398438 7.9375 -36.609375 C 8.34375 -37.816406 8.789062 -38.976562 9.28125 -40.09375 C 9.78125 -41.207031 10.289062 -42.125 10.8125 -42.84375 C 11.34375 -43.570312 11.875 -43.984375 12.40625 -44.078125 C 12.925781 -44.171875 13.34375 -43.988281 13.65625 -43.53125 Z M 7.984375 -30.609375 C 9.472656 -33.398438 10.519531 -35.722656 11.125 -37.578125 C 11.726562 -39.441406 12.078125 -40.789062 12.171875 -41.625 C 11.734375 -41 11.144531 -39.828125 10.40625 -38.109375 C 9.664062 -36.390625 8.859375 -33.890625 7.984375 -30.609375 Z M 7.984375 -30.609375 "/></g></g></g><g fill="#000000" fill-opacity="1"><g transform="translate(274.05868, 79.514817)"><g><path d="M 23.3125 -10.125 C 23.53125 -9.96875 23.644531 -9.765625 23.65625 -9.515625 C 23.675781 -9.273438 23.609375 -9.0625 23.453125 -8.875 C 22.273438 -7.507812 20.925781 -6.523438 19.40625 -5.921875 C 17.894531 -5.316406 16.457031 -5.203125 15.09375 -5.578125 C 13.519531 -5.972656 12.296875 -6.945312 11.421875 -8.5 C 10.648438 -5.800781 9.472656 -3.15625 7.890625 -0.5625 C 6.835938 1.207031 5.769531 2.671875 4.6875 3.828125 C 3.601562 4.992188 2.628906 5.71875 1.765625 6 C 1.453125 6.082031 1.15625 6.125 0.875 6.125 C 0.539062 6.125 0.253906 6.054688 0.015625 5.921875 C -0.210938 5.785156 -0.390625 5.671875 -0.515625 5.578125 C -0.640625 5.421875 -0.800781 5.175781 -1 4.84375 C -1.195312 4.519531 -1.332031 3.992188 -1.40625 3.265625 C -1.488281 2.546875 -1.453125 1.503906 -1.296875 0.140625 C -1.140625 -1.222656 -0.789062 -2.992188 -0.25 -5.171875 C 0.289062 -7.359375 1.101562 -10.0625 2.1875 -13.28125 C 2.25 -13.5 2.394531 -13.660156 2.625 -13.765625 C 2.851562 -13.878906 3.078125 -13.90625 3.296875 -13.84375 C 3.546875 -13.75 3.722656 -13.59375 3.828125 -13.375 C 3.941406 -13.15625 3.953125 -12.925781 3.859375 -12.6875 C 2.898438 -9.769531 2.160156 -7.3125 1.640625 -5.3125 C 1.128906 -3.320312 0.78125 -1.695312 0.59375 -0.4375 C 0.414062 0.8125 0.332031 1.769531 0.34375 2.4375 C 0.363281 3.101562 0.425781 3.566406 0.53125 3.828125 C 0.644531 4.097656 0.71875 4.25 0.75 4.28125 C 0.78125 4.300781 0.816406 4.316406 0.859375 4.328125 C 0.898438 4.347656 1.015625 4.332031 1.203125 4.28125 C 1.859375 4.0625 2.648438 3.429688 3.578125 2.390625 C 4.503906 1.359375 5.4375 0.0625 6.375 -1.5 C 7.320312 -3.070312 8.148438 -4.753906 8.859375 -6.546875 C 9.578125 -8.347656 10.0625 -10.113281 10.3125 -11.84375 C 10.375 -12.34375 10.664062 -12.609375 11.1875 -12.640625 C 11.6875 -12.640625 11.984375 -12.390625 12.078125 -11.890625 C 12.578125 -9.285156 13.738281 -7.753906 15.5625 -7.296875 C 16.582031 -7.015625 17.6875 -7.117188 18.875 -7.609375 C 20.070312 -8.109375 21.132812 -8.914062 22.0625 -10.03125 C 22.25 -10.21875 22.457031 -10.316406 22.6875 -10.328125 C 22.925781 -10.347656 23.132812 -10.28125 23.3125 -10.125 Z M 23.3125 -10.125 "/></g></g></g><g fill="#000000" fill-opacity="1"><g transform="translate(295.981667, 79.514817)"><g><path d="M 19.46875 -10.3125 C 19.6875 -10.21875 19.832031 -10.050781 19.90625 -9.8125 C 19.976562 -9.582031 19.96875 -9.363281 19.875 -9.15625 C 19.289062 -7.945312 18.648438 -6.738281 17.953125 -5.53125 C 17.253906 -4.320312 16.523438 -3.210938 15.765625 -2.203125 C 15.003906 -1.203125 14.222656 -0.398438 13.421875 0.203125 C 12.617188 0.804688 11.816406 1.109375 11.015625 1.109375 C 10.859375 1.109375 10.6875 1.09375 10.5 1.0625 C 8.425781 0.664062 7.140625 -2.117188 6.640625 -7.296875 C 6.117188 -6.578125 5.507812 -5.773438 4.8125 -4.890625 C 4.113281 -4.015625 3.375 -3.144531 2.59375 -2.28125 C 2.476562 -2.15625 2.28125 -1.957031 2 -1.6875 C 1.71875 -1.425781 1.390625 -1.21875 1.015625 -1.0625 C 0.648438 -0.914062 0.28125 -0.929688 -0.09375 -1.109375 C -0.832031 -1.390625 -1.1875 -2.195312 -1.15625 -3.53125 C -1.15625 -4.300781 -1.007812 -5.257812 -0.71875 -6.40625 C -0.425781 -7.550781 -0.0078125 -8.703125 0.53125 -9.859375 C 1.070312 -11.023438 1.707031 -12.054688 2.4375 -12.953125 C 3.164062 -13.859375 3.976562 -14.460938 4.875 -14.765625 C 5.4375 -14.984375 6.117188 -15.019531 6.921875 -14.875 C 7.722656 -14.738281 8.5625 -14.160156 9.4375 -13.140625 C 9.582031 -12.960938 9.644531 -12.75 9.625 -12.5 C 9.613281 -12.25 9.519531 -12.046875 9.34375 -11.890625 C 9.15625 -11.734375 8.9375 -11.660156 8.6875 -11.671875 C 8.4375 -11.691406 8.234375 -11.796875 8.078125 -11.984375 C 7.335938 -12.847656 6.695312 -13.253906 6.15625 -13.203125 C 5.613281 -13.160156 5.15625 -13.003906 4.78125 -12.734375 C 4.101562 -12.234375 3.484375 -11.519531 2.921875 -10.59375 C 2.367188 -9.664062 1.90625 -8.6875 1.53125 -7.65625 C 1.15625 -6.632812 0.890625 -5.679688 0.734375 -4.796875 C 0.585938 -3.921875 0.546875 -3.28125 0.609375 -2.875 C 0.703125 -2.9375 0.800781 -3.015625 0.90625 -3.109375 C 1.007812 -3.203125 1.125 -3.328125 1.25 -3.484375 C 2.175781 -4.503906 3.023438 -5.515625 3.796875 -6.515625 C 4.578125 -7.523438 5.25 -8.421875 5.8125 -9.203125 C 5.957031 -9.410156 6.097656 -9.613281 6.234375 -9.8125 C 6.378906 -10.019531 6.515625 -10.203125 6.640625 -10.359375 C 6.890625 -10.671875 7.21875 -10.765625 7.625 -10.640625 C 8.019531 -10.546875 8.234375 -10.28125 8.265625 -9.84375 C 8.359375 -7.832031 8.519531 -6.210938 8.75 -4.984375 C 8.988281 -3.765625 9.242188 -2.851562 9.515625 -2.25 C 9.796875 -1.644531 10.0625 -1.234375 10.3125 -1.015625 C 10.5625 -0.804688 10.75 -0.703125 10.875 -0.703125 C 11.457031 -0.578125 12.398438 -1.175781 13.703125 -2.5 C 15.003906 -3.832031 16.519531 -6.296875 18.25 -9.890625 C 18.375 -10.140625 18.550781 -10.300781 18.78125 -10.375 C 19.019531 -10.457031 19.25 -10.4375 19.46875 -10.3125 Z M 19.46875 -10.3125 "/></g></g></g><g fill="#000000" fill-opacity="1"><g transform="translate(313.259951, 79.514817)"><g><path d="M 20.390625 -10.546875 C 20.609375 -10.421875 20.765625 -10.238281 20.859375 -10 C 20.953125 -9.769531 20.9375 -9.550781 20.8125 -9.34375 C 20.21875 -8.070312 19.492188 -6.644531 18.640625 -5.0625 C 17.796875 -3.476562 16.894531 -1.890625 15.9375 -0.296875 C 14.976562 1.296875 14 2.75 13 4.0625 C 12.007812 5.375 11.050781 6.441406 10.125 7.265625 C 9.195312 8.085938 8.363281 8.5 7.625 8.5 C 7.40625 8.5 7.203125 8.453125 7.015625 8.359375 C 6.359375 8.109375 5.929688 7.519531 5.734375 6.59375 C 5.535156 5.664062 5.5625 4.332031 5.8125 2.59375 C 6.238281 -0.53125 7.382812 -4.957031 9.25 -10.6875 C 9.21875 -10.6875 9.191406 -10.675781 9.171875 -10.65625 C 9.160156 -10.644531 9.140625 -10.640625 9.109375 -10.640625 C 8.484375 -10.203125 7.738281 -9.75 6.875 -9.28125 C 6.007812 -8.820312 5.109375 -8.515625 4.171875 -8.359375 C 3.242188 -8.203125 2.363281 -8.40625 1.53125 -8.96875 C 0.351562 -9.800781 -0.25 -10.957031 -0.28125 -12.4375 C -0.3125 -13.925781 0.242188 -15.554688 1.390625 -17.328125 C 1.765625 -17.878906 2.253906 -18.492188 2.859375 -19.171875 C 3.460938 -19.859375 4.097656 -20.390625 4.765625 -20.765625 C 5.429688 -21.140625 6.023438 -21.15625 6.546875 -20.8125 C 6.828125 -20.65625 7.035156 -20.390625 7.171875 -20.015625 C 7.316406 -19.648438 7.3125 -19.078125 7.15625 -18.296875 C 7 -17.523438 6.625 -16.488281 6.03125 -15.1875 C 5.445312 -13.882812 4.566406 -12.195312 3.390625 -10.125 C 4.097656 -10.03125 4.894531 -10.226562 5.78125 -10.71875 C 6.664062 -11.21875 7.445312 -11.6875 8.125 -12.125 C 8.78125 -12.5625 9.320312 -12.878906 9.75 -13.078125 C 10.1875 -13.273438 10.59375 -13.234375 10.96875 -12.953125 C 11.300781 -12.679688 11.4375 -12.34375 11.375 -11.9375 C 11.3125 -11.53125 11.25 -11.222656 11.1875 -11.015625 C 10.164062 -7.785156 9.375 -5.101562 8.8125 -2.96875 C 8.257812 -0.832031 7.882812 0.882812 7.6875 2.1875 C 7.488281 3.488281 7.390625 4.460938 7.390625 5.109375 C 7.390625 5.753906 7.4375 6.175781 7.53125 6.375 C 7.625 6.582031 7.671875 6.703125 7.671875 6.734375 C 8.035156 6.796875 8.796875 6.195312 9.953125 4.9375 C 11.117188 3.6875 12.503906 1.800781 14.109375 -0.71875 C 15.722656 -3.238281 17.414062 -6.359375 19.1875 -10.078125 C 19.3125 -10.328125 19.488281 -10.488281 19.71875 -10.5625 C 19.945312 -10.644531 20.171875 -10.640625 20.390625 -10.546875 Z M 1.671875 -13.703125 C 1.484375 -13.054688 1.425781 -12.519531 1.5 -12.09375 C 1.582031 -11.675781 1.703125 -11.347656 1.859375 -11.109375 C 2.847656 -12.835938 3.597656 -14.242188 4.109375 -15.328125 C 4.617188 -16.410156 4.96875 -17.242188 5.15625 -17.828125 C 5.34375 -18.421875 5.453125 -18.84375 5.484375 -19.09375 C 5.140625 -18.90625 4.710938 -18.546875 4.203125 -18.015625 C 3.691406 -17.492188 3.195312 -16.859375 2.71875 -16.109375 C 2.238281 -15.367188 1.890625 -14.566406 1.671875 -13.703125 Z M 1.671875 -13.703125 "/></g></g></g><g fill="#000000" fill-opacity="1"><g transform="translate(331.792308, 79.514817)"><g><path d="M 16.8125 -10.125 C 17.03125 -9.96875 17.15625 -9.765625 17.1875 -9.515625 C 17.21875 -9.273438 17.15625 -9.0625 17 -8.875 C 16.195312 -7.851562 15.257812 -6.9375 14.1875 -6.125 C 13.125 -5.320312 12.007812 -4.726562 10.84375 -4.34375 C 9.6875 -3.957031 8.566406 -3.890625 7.484375 -4.140625 C 7.046875 -3.054688 6.429688 -2.21875 5.640625 -1.625 C 4.847656 -1.039062 4.050781 -0.75 3.25 -0.75 C 3.25 -0.75 3.238281 -0.75 3.21875 -0.75 C 3.207031 -0.75 3.203125 -0.75 3.203125 -0.75 C 2.367188 -0.78125 1.632812 -1.066406 1 -1.609375 C 0.363281 -2.148438 -0.078125 -2.898438 -0.328125 -3.859375 C -0.609375 -4.941406 -0.65625 -5.96875 -0.46875 -6.9375 C -0.28125 -7.914062 0.0546875 -8.773438 0.546875 -9.515625 C 1.046875 -10.265625 1.609375 -10.835938 2.234375 -11.234375 C 2.453125 -11.390625 2.695312 -11.421875 2.96875 -11.328125 C 3.25 -12.015625 3.644531 -12.539062 4.15625 -12.90625 C 4.664062 -13.28125 5.203125 -13.421875 5.765625 -13.328125 C 6.097656 -13.265625 6.46875 -13.054688 6.875 -12.703125 C 7.28125 -12.347656 7.601562 -11.710938 7.84375 -10.796875 C 8.09375 -9.890625 8.171875 -8.550781 8.078125 -6.78125 C 8.046875 -6.46875 8 -6.160156 7.9375 -5.859375 C 8.78125 -5.703125 9.664062 -5.789062 10.59375 -6.125 C 11.519531 -6.46875 12.414062 -6.988281 13.28125 -7.6875 C 14.15625 -8.382812 14.914062 -9.148438 15.5625 -9.984375 C 15.71875 -10.171875 15.914062 -10.28125 16.15625 -10.3125 C 16.40625 -10.34375 16.625 -10.28125 16.8125 -10.125 Z M 3.25 -2.5625 C 3.65625 -2.5625 4.101562 -2.742188 4.59375 -3.109375 C 5.09375 -3.484375 5.5 -4.039062 5.8125 -4.78125 C 4.695312 -5.40625 3.894531 -6.117188 3.40625 -6.921875 C 2.925781 -7.722656 2.671875 -8.53125 2.640625 -9.34375 C 1.992188 -8.71875 1.566406 -7.925781 1.359375 -6.96875 C 1.160156 -6.007812 1.171875 -5.140625 1.390625 -4.359375 C 1.484375 -4.023438 1.671875 -3.640625 1.953125 -3.203125 C 2.234375 -2.773438 2.664062 -2.5625 3.25 -2.5625 Z M 6.265625 -6.875 C 6.328125 -8.113281 6.300781 -9.070312 6.1875 -9.75 C 6.082031 -10.4375 5.953125 -10.898438 5.796875 -11.140625 C 5.648438 -11.390625 5.546875 -11.53125 5.484375 -11.5625 C 5.453125 -11.5625 5.4375 -11.5625 5.4375 -11.5625 C 5.34375 -11.5625 5.203125 -11.46875 5.015625 -11.28125 C 4.828125 -11.101562 4.671875 -10.828125 4.546875 -10.453125 C 4.367188 -9.859375 4.382812 -9.210938 4.59375 -8.515625 C 4.8125 -7.828125 5.367188 -7.1875 6.265625 -6.59375 C 6.265625 -6.6875 6.265625 -6.78125 6.265625 -6.875 Z M 6.265625 -6.875 "/></g></g></g><g fill="#000000" fill-opacity="1"><g transform="translate(58.984738, 81.116331)"><g><path d="M 58.15625 -40.09375 C 58.25 -38.570312 58.171875 -36.5625 57.921875 -34.0625 C 57.679688 -31.570312 57.316406 -28.75 56.828125 -25.59375 C 56.347656 -22.4375 55.789062 -19.097656 55.15625 -15.578125 C 54.519531 -12.066406 53.878906 -8.53125 53.234375 -4.96875 C 52.796875 -2.488281 52.34375 0.0390625 51.875 2.625 C 51.414062 5.207031 50.992188 7.679688 50.609375 10.046875 C 50.222656 12.421875 49.921875 14.515625 49.703125 16.328125 C 49.484375 18.140625 49.390625 19.492188 49.421875 20.390625 C 49.546875 20.171875 49.6875 19.941406 49.84375 19.703125 C 49.96875 19.484375 50.144531 19.34375 50.375 19.28125 C 50.613281 19.21875 50.835938 19.25 51.046875 19.375 C 51.265625 19.5 51.40625 19.675781 51.46875 19.90625 C 51.53125 20.132812 51.5 20.359375 51.375 20.578125 C 51 21.203125 50.59375 21.769531 50.15625 22.28125 C 49.726562 22.789062 49.222656 22.953125 48.640625 22.765625 C 48.296875 22.609375 48.035156 22.273438 47.859375 21.765625 C 47.691406 21.253906 47.628906 20.414062 47.671875 19.25 C 47.722656 18.09375 47.890625 16.484375 48.171875 14.421875 C 48.453125 12.359375 48.863281 9.71875 49.40625 6.5 C 49.945312 3.28125 50.648438 -0.632812 51.515625 -5.25 C 52.109375 -8.65625 52.710938 -12.09375 53.328125 -15.5625 C 53.941406 -19.03125 54.5 -22.34375 55 -25.5 C 55.5 -28.65625 55.878906 -31.488281 56.140625 -34 C 56.398438 -36.507812 56.484375 -38.492188 56.390625 -39.953125 C 56.328125 -40.847656 56.203125 -41.503906 56.015625 -41.921875 C 55.835938 -42.335938 55.65625 -42.5625 55.46875 -42.59375 C 55.46875 -42.59375 55.453125 -42.59375 55.421875 -42.59375 C 55.109375 -42.59375 54.5625 -42.257812 53.78125 -41.59375 C 53.007812 -40.925781 52.039062 -39.738281 50.875 -38.03125 C 49.71875 -36.332031 48.351562 -33.921875 46.78125 -30.796875 C 45.164062 -27.578125 43.164062 -22.984375 40.78125 -17.015625 C 38.394531 -11.054688 35.859375 -3.398438 33.171875 5.953125 C 33.015625 6.503906 32.65625 6.71875 32.09375 6.59375 C 31.539062 6.46875 31.3125 6.128906 31.40625 5.578125 C 33.570312 -7.179688 34.734375 -16.769531 34.890625 -23.1875 C 34.953125 -25.164062 34.921875 -26.71875 34.796875 -27.84375 C 34.671875 -28.976562 34.515625 -29.800781 34.328125 -30.3125 C 34.140625 -30.820312 33.972656 -31.144531 33.828125 -31.28125 C 33.691406 -31.425781 33.609375 -31.515625 33.578125 -31.546875 C 33.554688 -31.546875 33.410156 -31.5 33.140625 -31.40625 C 32.878906 -31.3125 32.46875 -31 31.90625 -30.46875 C 31.351562 -29.945312 30.632812 -29.035156 29.75 -27.734375 C 28.863281 -26.429688 27.800781 -24.585938 26.5625 -22.203125 C 25.332031 -19.816406 23.878906 -16.71875 22.203125 -12.90625 C 20.503906 -8.976562 18.796875 -4.726562 17.078125 -0.15625 C 15.359375 4.40625 13.707031 9.085938 12.125 13.890625 C 10.539062 18.691406 9.097656 23.398438 7.796875 28.015625 C 7.796875 28.015625 7.796875 28.03125 7.796875 28.0625 C 7.585938 28.613281 7.363281 29.101562 7.125 29.53125 C 6.894531 29.96875 6.59375 30.1875 6.21875 30.1875 C 6.125 30.1875 6.019531 30.171875 5.90625 30.140625 C 5.46875 29.992188 5.238281 29.664062 5.21875 29.15625 C 5.207031 28.644531 5.28125 27.84375 5.4375 26.75 C 5.65625 25.300781 6.023438 23.210938 6.546875 20.484375 C 7.472656 15.804688 8.835938 9.394531 10.640625 1.25 C 11.441406 -2.488281 12.253906 -6.175781 13.078125 -9.8125 C 13.898438 -13.457031 14.664062 -16.835938 15.375 -19.953125 C 16.082031 -23.066406 16.703125 -25.738281 17.234375 -27.96875 C 17.765625 -30.195312 18.132812 -31.757812 18.34375 -32.65625 C 18.84375 -34.789062 19.097656 -36.40625 19.109375 -37.5 C 19.128906 -38.601562 19.035156 -39.367188 18.828125 -39.796875 C 18.628906 -40.234375 18.46875 -40.5 18.34375 -40.59375 C 18.007812 -40.8125 17.492188 -40.78125 16.796875 -40.5 C 16.097656 -40.226562 15.300781 -39.75 14.40625 -39.0625 C 13.195312 -38.132812 11.957031 -36.925781 10.6875 -35.4375 C 9.414062 -33.957031 8.210938 -32.332031 7.078125 -30.5625 C 5.953125 -28.800781 4.992188 -27.015625 4.203125 -25.203125 C 3.410156 -23.390625 2.867188 -21.644531 2.578125 -19.96875 C 2.285156 -18.300781 2.351562 -16.832031 2.78125 -15.5625 C 3.6875 -12.894531 6.257812 -11.53125 10.5 -11.46875 C 10.75 -11.46875 10.957031 -11.375 11.125 -11.1875 C 11.289062 -11.007812 11.375 -10.796875 11.375 -10.546875 C 11.375 -10.296875 11.28125 -10.082031 11.09375 -9.90625 C 10.914062 -9.738281 10.71875 -9.65625 10.5 -9.65625 C 10.5 -9.65625 10.488281 -9.65625 10.46875 -9.65625 C 10.457031 -9.65625 10.453125 -9.65625 10.453125 -9.65625 C 9.304688 -9.6875 8.097656 -9.847656 6.828125 -10.140625 C 5.554688 -10.441406 4.398438 -10.972656 3.359375 -11.734375 C 2.328125 -12.492188 1.5625 -13.582031 1.0625 -15 C 0.695312 -16.144531 0.550781 -17.351562 0.625 -18.625 C 0.707031 -19.894531 0.929688 -21.15625 1.296875 -22.40625 C 1.671875 -23.664062 2.097656 -24.84375 2.578125 -25.9375 C 3.054688 -27.039062 3.515625 -27.992188 3.953125 -28.796875 C 5.222656 -31.117188 6.691406 -33.332031 8.359375 -35.4375 C 10.035156 -37.550781 11.691406 -39.238281 13.328125 -40.5 C 14.910156 -41.707031 16.179688 -42.347656 17.140625 -42.421875 C 18.097656 -42.503906 18.828125 -42.394531 19.328125 -42.09375 C 21.117188 -40.945312 21.363281 -37.660156 20.0625 -32.234375 C 19.726562 -30.816406 19.289062 -28.9375 18.75 -26.59375 C 18.207031 -24.257812 17.601562 -21.617188 16.9375 -18.671875 C 16.269531 -15.734375 15.5625 -12.628906 14.8125 -9.359375 C 14.070312 -6.085938 13.335938 -2.804688 12.609375 0.484375 C 11.878906 3.785156 11.179688 6.972656 10.515625 10.046875 C 9.847656 13.128906 9.269531 15.941406 8.78125 18.484375 C 9.957031 14.742188 11.195312 11 12.5 7.25 C 13.800781 3.5 15.128906 -0.140625 16.484375 -3.671875 C 17.847656 -7.203125 19.210938 -10.53125 20.578125 -13.65625 C 22.367188 -17.769531 23.945312 -21.101562 25.3125 -23.65625 C 26.675781 -26.21875 27.851562 -28.179688 28.84375 -29.546875 C 29.832031 -30.910156 30.664062 -31.851562 31.34375 -32.375 C 32.03125 -32.90625 32.582031 -33.203125 33 -33.265625 C 33.414062 -33.328125 33.75 -33.328125 34 -33.265625 C 34.4375 -33.171875 34.851562 -32.890625 35.25 -32.421875 C 35.65625 -31.960938 35.988281 -31.179688 36.25 -30.078125 C 36.519531 -28.972656 36.675781 -27.421875 36.71875 -25.421875 C 36.769531 -23.429688 36.660156 -20.867188 36.390625 -17.734375 C 36.128906 -14.609375 35.691406 -10.769531 35.078125 -6.21875 C 36.960938 -11.945312 38.875 -17.171875 40.8125 -21.890625 C 42.75 -26.617188 44.628906 -30.675781 46.453125 -34.0625 C 48.273438 -37.457031 49.976562 -40.050781 51.5625 -41.84375 C 53.144531 -43.644531 54.523438 -44.484375 55.703125 -44.359375 C 57.148438 -44.203125 57.96875 -42.78125 58.15625 -40.09375 Z M 58.15625 -40.09375 "/></g></g></g><g fill="#000000" fill-opacity="1"><g transform="translate(117.833102, 81.116331)"><g><path d="M 19.46875 -10.3125 C 19.6875 -10.21875 19.832031 -10.050781 19.90625 -9.8125 C 19.976562 -9.582031 19.96875 -9.363281 19.875 -9.15625 C 19.289062 -7.945312 18.648438 -6.738281 17.953125 -5.53125 C 17.253906 -4.320312 16.523438 -3.210938 15.765625 -2.203125 C 15.003906 -1.203125 14.222656 -0.398438 13.421875 0.203125 C 12.617188 0.804688 11.816406 1.109375 11.015625 1.109375 C 10.859375 1.109375 10.6875 1.09375 10.5 1.0625 C 8.425781 0.664062 7.140625 -2.117188 6.640625 -7.296875 C 6.117188 -6.578125 5.507812 -5.773438 4.8125 -4.890625 C 4.113281 -4.015625 3.375 -3.144531 2.59375 -2.28125 C 2.476562 -2.15625 2.28125 -1.957031 2 -1.6875 C 1.71875 -1.425781 1.390625 -1.21875 1.015625 -1.0625 C 0.648438 -0.914062 0.28125 -0.929688 -0.09375 -1.109375 C -0.832031 -1.390625 -1.1875 -2.195312 -1.15625 -3.53125 C -1.15625 -4.300781 -1.007812 -5.257812 -0.71875 -6.40625 C -0.425781 -7.550781 -0.0078125 -8.703125 0.53125 -9.859375 C 1.070312 -11.023438 1.707031 -12.054688 2.4375 -12.953125 C 3.164062 -13.859375 3.976562 -14.460938 4.875 -14.765625 C 5.4375 -14.984375 6.117188 -15.019531 6.921875 -14.875 C 7.722656 -14.738281 8.5625 -14.160156 9.4375 -13.140625 C 9.582031 -12.960938 9.644531 -12.75 9.625 -12.5 C 9.613281 -12.25 9.519531 -12.046875 9.34375 -11.890625 C 9.15625 -11.734375 8.9375 -11.660156 8.6875 -11.671875 C 8.4375 -11.691406 8.234375 -11.796875 8.078125 -11.984375 C 7.335938 -12.847656 6.695312 -13.253906 6.15625 -13.203125 C 5.613281 -13.160156 5.15625 -13.003906 4.78125 -12.734375 C 4.101562 -12.234375 3.484375 -11.519531 2.921875 -10.59375 C 2.367188 -9.664062 1.90625 -8.6875 1.53125 -7.65625 C 1.15625 -6.632812 0.890625 -5.679688 0.734375 -4.796875 C 0.585938 -3.921875 0.546875 -3.28125 0.609375 -2.875 C 0.703125 -2.9375 0.800781 -3.015625 0.90625 -3.109375 C 1.007812 -3.203125 1.125 -3.328125 1.25 -3.484375 C 2.175781 -4.503906 3.023438 -5.515625 3.796875 -6.515625 C 4.578125 -7.523438 5.25 -8.421875 5.8125 -9.203125 C 5.957031 -9.410156 6.097656 -9.613281 6.234375 -9.8125 C 6.378906 -10.019531 6.515625 -10.203125 6.640625 -10.359375 C 6.890625 -10.671875 7.21875 -10.765625 7.625 -10.640625 C 8.019531 -10.546875 8.234375 -10.28125 8.265625 -9.84375 C 8.359375 -7.832031 8.519531 -6.210938 8.75 -4.984375 C 8.988281 -3.765625 9.242188 -2.851562 9.515625 -2.25 C 9.796875 -1.644531 10.0625 -1.234375 10.3125 -1.015625 C 10.5625 -0.804688 10.75 -0.703125 10.875 -0.703125 C 11.457031 -0.578125 12.398438 -1.175781 13.703125 -2.5 C 15.003906 -3.832031 16.519531 -6.296875 18.25 -9.890625 C 18.375 -10.140625 18.550781 -10.300781 18.78125 -10.375 C 19.019531 -10.457031 19.25 -10.4375 19.46875 -10.3125 Z M 19.46875 -10.3125 "/></g></g></g><g fill="#000000" fill-opacity="1"><g transform="translate(135.111386, 81.116331)"><g><path d="M 20.390625 -10.546875 C 20.609375 -10.421875 20.765625 -10.238281 20.859375 -10 C 20.953125 -9.769531 20.9375 -9.550781 20.8125 -9.34375 C 20.21875 -8.070312 19.492188 -6.644531 18.640625 -5.0625 C 17.796875 -3.476562 16.894531 -1.890625 15.9375 -0.296875 C 14.976562 1.296875 14 2.75 13 4.0625 C 12.007812 5.375 11.050781 6.441406 10.125 7.265625 C 9.195312 8.085938 8.363281 8.5 7.625 8.5 C 7.40625 8.5 7.203125 8.453125 7.015625 8.359375 C 6.359375 8.109375 5.929688 7.519531 5.734375 6.59375 C 5.535156 5.664062 5.5625 4.332031 5.8125 2.59375 C 6.238281 -0.53125 7.382812 -4.957031 9.25 -10.6875 C 9.21875 -10.6875 9.191406 -10.675781 9.171875 -10.65625 C 9.160156 -10.644531 9.140625 -10.640625 9.109375 -10.640625 C 8.484375 -10.203125 7.738281 -9.75 6.875 -9.28125 C 6.007812 -8.820312 5.109375 -8.515625 4.171875 -8.359375 C 3.242188 -8.203125 2.363281 -8.40625 1.53125 -8.96875 C 0.351562 -9.800781 -0.25 -10.957031 -0.28125 -12.4375 C -0.3125 -13.925781 0.242188 -15.554688 1.390625 -17.328125 C 1.765625 -17.878906 2.253906 -18.492188 2.859375 -19.171875 C 3.460938 -19.859375 4.097656 -20.390625 4.765625 -20.765625 C 5.429688 -21.140625 6.023438 -21.15625 6.546875 -20.8125 C 6.828125 -20.65625 7.035156 -20.390625 7.171875 -20.015625 C 7.316406 -19.648438 7.3125 -19.078125 7.15625 -18.296875 C 7 -17.523438 6.625 -16.488281 6.03125 -15.1875 C 5.445312 -13.882812 4.566406 -12.195312 3.390625 -10.125 C 4.097656 -10.03125 4.894531 -10.226562 5.78125 -10.71875 C 6.664062 -11.21875 7.445312 -11.6875 8.125 -12.125 C 8.78125 -12.5625 9.320312 -12.878906 9.75 -13.078125 C 10.1875 -13.273438 10.59375 -13.234375 10.96875 -12.953125 C 11.300781 -12.679688 11.4375 -12.34375 11.375 -11.9375 C 11.3125 -11.53125 11.25 -11.222656 11.1875 -11.015625 C 10.164062 -7.785156 9.375 -5.101562 8.8125 -2.96875 C 8.257812 -0.832031 7.882812 0.882812 7.6875 2.1875 C 7.488281 3.488281 7.390625 4.460938 7.390625 5.109375 C 7.390625 5.753906 7.4375 6.175781 7.53125 6.375 C 7.625 6.582031 7.671875 6.703125 7.671875 6.734375 C 8.035156 6.796875 8.796875 6.195312 9.953125 4.9375 C 11.117188 3.6875 12.503906 1.800781 14.109375 -0.71875 C 15.722656 -3.238281 17.414062 -6.359375 19.1875 -10.078125 C 19.3125 -10.328125 19.488281 -10.488281 19.71875 -10.5625 C 19.945312 -10.644531 20.171875 -10.640625 20.390625 -10.546875 Z M 1.671875 -13.703125 C 1.484375 -13.054688 1.425781 -12.519531 1.5 -12.09375 C 1.582031 -11.675781 1.703125 -11.347656 1.859375 -11.109375 C 2.847656 -12.835938 3.597656 -14.242188 4.109375 -15.328125 C 4.617188 -16.410156 4.96875 -17.242188 5.15625 -17.828125 C 5.34375 -18.421875 5.453125 -18.84375 5.484375 -19.09375 C 5.140625 -18.90625 4.710938 -18.546875 4.203125 -18.015625 C 3.691406 -17.492188 3.195312 -16.859375 2.71875 -16.109375 C 2.238281 -15.367188 1.890625 -14.566406 1.671875 -13.703125 Z M 1.671875 -13.703125 "/></g></g></g><g fill="#000000" fill-opacity="1"><g transform="translate(153.643743, 81.116331)"><g><path d="M 39.203125 -27.40625 C 39.359375 -27.21875 39.421875 -27 39.390625 -26.75 C 39.359375 -26.507812 39.234375 -26.3125 39.015625 -26.15625 C 38.648438 -25.90625 38.296875 -25.921875 37.953125 -26.203125 C 37.546875 -26.359375 36.625 -26.46875 35.1875 -26.53125 C 33.75 -26.59375 31.945312 -26.628906 29.78125 -26.640625 C 27.613281 -26.660156 25.226562 -26.65625 22.625 -26.625 C 20.019531 -26.59375 17.347656 -26.550781 14.609375 -26.5 C 11.867188 -26.457031 9.210938 -26.40625 6.640625 -26.34375 C 5.679688 -22.3125 4.675781 -17.929688 3.625 -13.203125 C 2.570312 -8.484375 1.535156 -3.695312 0.515625 1.15625 C -0.816406 7.539062 -1.847656 12.773438 -2.578125 16.859375 C -3.304688 20.953125 -3.78125 23.910156 -4 25.734375 C -3.9375 25.734375 -3.875 25.75 -3.8125 25.78125 C -3.5625 25.84375 -3.390625 25.988281 -3.296875 26.21875 C -3.203125 26.457031 -3.203125 26.679688 -3.296875 26.890625 C -3.484375 27.421875 -3.691406 27.910156 -3.921875 28.359375 C -4.160156 28.804688 -4.476562 29.03125 -4.875 29.03125 C -4.96875 29.03125 -5.078125 29.015625 -5.203125 28.984375 C -5.640625 28.828125 -5.878906 28.492188 -5.921875 27.984375 C -5.972656 27.472656 -5.9375 26.769531 -5.8125 25.875 C -5.6875 24.570312 -5.40625 22.695312 -4.96875 20.25 C -4.59375 17.957031 -4.109375 15.28125 -3.515625 12.21875 C -2.929688 9.15625 -2.253906 5.796875 -1.484375 2.140625 C -0.460938 -2.816406 0.585938 -7.738281 1.671875 -12.625 C 2.753906 -17.519531 3.789062 -22.078125 4.78125 -26.296875 C 3.300781 -26.265625 1.894531 -26.234375 0.5625 -26.203125 C -0.769531 -26.171875 -1.976562 -26.140625 -3.0625 -26.109375 C -5.132812 -26.046875 -6.945312 -26 -8.5 -25.96875 C -10.050781 -25.9375 -11.148438 -25.921875 -11.796875 -25.921875 C -12.046875 -25.921875 -12.253906 -26.003906 -12.421875 -26.171875 C -12.597656 -26.347656 -12.6875 -26.554688 -12.6875 -26.796875 C -12.6875 -27.046875 -12.597656 -27.253906 -12.421875 -27.421875 C -12.253906 -27.597656 -12.046875 -27.6875 -11.796875 -27.6875 C -11.148438 -27.6875 -10.054688 -27.707031 -8.515625 -27.75 C -6.984375 -27.800781 -5.179688 -27.859375 -3.109375 -27.921875 C -1.617188 -27.953125 -0.179688 -27.984375 1.203125 -28.015625 C 2.597656 -28.046875 3.945312 -28.078125 5.25 -28.109375 C 5.71875 -30.085938 6.175781 -31.953125 6.625 -33.703125 C 7.070312 -35.453125 7.492188 -37.054688 7.890625 -38.515625 C 7.953125 -38.753906 8.09375 -38.9375 8.3125 -39.0625 C 8.53125 -39.1875 8.75 -39.21875 8.96875 -39.15625 C 9.21875 -39.09375 9.398438 -38.953125 9.515625 -38.734375 C 9.640625 -38.523438 9.671875 -38.296875 9.609375 -38.046875 C 8.867188 -35.285156 8.019531 -31.988281 7.0625 -28.15625 C 11.894531 -28.25 16.03125 -28.316406 19.46875 -28.359375 C 22.90625 -28.398438 25.785156 -28.421875 28.109375 -28.421875 C 30.429688 -28.421875 32.3125 -28.390625 33.75 -28.328125 C 35.1875 -28.273438 36.273438 -28.207031 37.015625 -28.125 C 37.765625 -28.050781 38.289062 -27.953125 38.59375 -27.828125 C 38.90625 -27.703125 39.109375 -27.5625 39.203125 -27.40625 Z M 39.203125 -27.40625 "/></g></g></g><g fill="#000000" fill-opacity="1"><g transform="translate(159.821192, 81.116331)"><g><path d="M 19.46875 -10.3125 C 19.6875 -10.21875 19.832031 -10.050781 19.90625 -9.8125 C 19.976562 -9.582031 19.96875 -9.363281 19.875 -9.15625 C 19.289062 -7.945312 18.648438 -6.738281 17.953125 -5.53125 C 17.253906 -4.320312 16.523438 -3.210938 15.765625 -2.203125 C 15.003906 -1.203125 14.222656 -0.398438 13.421875 0.203125 C 12.617188 0.804688 11.816406 1.109375 11.015625 1.109375 C 10.859375 1.109375 10.6875 1.09375 10.5 1.0625 C 8.425781 0.664062 7.140625 -2.117188 6.640625 -7.296875 C 6.117188 -6.578125 5.507812 -5.773438 4.8125 -4.890625 C 4.113281 -4.015625 3.375 -3.144531 2.59375 -2.28125 C 2.476562 -2.15625 2.28125 -1.957031 2 -1.6875 C 1.71875 -1.425781 1.390625 -1.21875 1.015625 -1.0625 C 0.648438 -0.914062 0.28125 -0.929688 -0.09375 -1.109375 C -0.832031 -1.390625 -1.1875 -2.195312 -1.15625 -3.53125 C -1.15625 -4.300781 -1.007812 -5.257812 -0.71875 -6.40625 C -0.425781 -7.550781 -0.0078125 -8.703125 0.53125 -9.859375 C 1.070312 -11.023438 1.707031 -12.054688 2.4375 -12.953125 C 3.164062 -13.859375 3.976562 -14.460938 4.875 -14.765625 C 5.4375 -14.984375 6.117188 -15.019531 6.921875 -14.875 C 7.722656 -14.738281 8.5625 -14.160156 9.4375 -13.140625 C 9.582031 -12.960938 9.644531 -12.75 9.625 -12.5 C 9.613281 -12.25 9.519531 -12.046875 9.34375 -11.890625 C 9.15625 -11.734375 8.9375 -11.660156 8.6875 -11.671875 C 8.4375 -11.691406 8.234375 -11.796875 8.078125 -11.984375 C 7.335938 -12.847656 6.695312 -13.253906 6.15625 -13.203125 C 5.613281 -13.160156 5.15625 -13.003906 4.78125 -12.734375 C 4.101562 -12.234375 3.484375 -11.519531 2.921875 -10.59375 C 2.367188 -9.664062 1.90625 -8.6875 1.53125 -7.65625 C 1.15625 -6.632812 0.890625 -5.679688 0.734375 -4.796875 C 0.585938 -3.921875 0.546875 -3.28125 0.609375 -2.875 C 0.703125 -2.9375 0.800781 -3.015625 0.90625 -3.109375 C 1.007812 -3.203125 1.125 -3.328125 1.25 -3.484375 C 2.175781 -4.503906 3.023438 -5.515625 3.796875 -6.515625 C 4.578125 -7.523438 5.25 -8.421875 5.8125 -9.203125 C 5.957031 -9.410156 6.097656 -9.613281 6.234375 -9.8125 C 6.378906 -10.019531 6.515625 -10.203125 6.640625 -10.359375 C 6.890625 -10.671875 7.21875 -10.765625 7.625 -10.640625 C 8.019531 -10.546875 8.234375 -10.28125 8.265625 -9.84375 C 8.359375 -7.832031 8.519531 -6.210938 8.75 -4.984375 C 8.988281 -3.765625 9.242188 -2.851562 9.515625 -2.25 C 9.796875 -1.644531 10.0625 -1.234375 10.3125 -1.015625 C 10.5625 -0.804688 10.75 -0.703125 10.875 -0.703125 C 11.457031 -0.578125 12.398438 -1.175781 13.703125 -2.5 C 15.003906 -3.832031 16.519531 -6.296875 18.25 -9.890625 C 18.375 -10.140625 18.550781 -10.300781 18.78125 -10.375 C 19.019531 -10.457031 19.25 -10.4375 19.46875 -10.3125 Z M 19.46875 -10.3125 "/></g></g></g><g fill="#000000" fill-opacity="1"><g transform="translate(151.121283, 125.357896)"><g><path d="M 2.96875 -5.796875 L 2.96875 -0.53125 L 4.390625 -0.625 L 4.390625 0 L 0.703125 0 L 0.703125 -0.625 L 2.125 -0.53125 L 2.125 -4.890625 L 0.78125 -4.203125 L 0.453125 -4.78125 L 2.9375 -5.796875 Z M 2.96875 -5.796875 "/></g></g></g><g fill="#000000" fill-opacity="1"><g transform="translate(161.635934, 125.357896)"><g><path d="M 4.828125 -1.3125 L 4.828125 -0.6875 L 3.6875 -0.6875 L 3.6875 1 L 2.859375 1 L 2.859375 -0.6875 L -0.015625 -0.6875 L -0.015625 -1.125 L 2.859375 -5.609375 L 3.6875 -5.609375 L 3.6875 -1.3125 Z M 2.859375 -1.3125 L 2.859375 -4.984375 L 0.5625 -1.3125 Z M 2.859375 -1.3125 "/></g></g></g><g fill="#000000" fill-opacity="1"><g transform="translate(172.150584, 125.357896)"><g><path d="M 0.859375 -0.046875 C 0.753906 -0.148438 0.703125 -0.28125 0.703125 -0.4375 C 0.703125 -0.59375 0.753906 -0.722656 0.859375 -0.828125 C 0.960938 -0.941406 1.09375 -1 1.25 -1 C 1.40625 -1 1.535156 -0.941406 1.640625 -0.828125 C 1.753906 -0.722656 1.8125 -0.59375 1.8125 -0.4375 C 1.8125 -0.28125 1.753906 -0.148438 1.640625 -0.046875 C 1.535156 0.0546875 1.40625 0.109375 1.25 0.109375 C 1.09375 0.109375 0.960938 0.0546875 0.859375 -0.046875 Z M 0.859375 -0.046875 "/></g></g></g><g fill="#000000" fill-opacity="1"><g transform="translate(180.169505, 125.357896)"><g><path d="M 2.6875 -5.765625 C 3.269531 -5.765625 3.753906 -5.519531 4.140625 -5.03125 C 4.523438 -4.550781 4.71875 -3.875 4.71875 -3 C 4.71875 -2.445312 4.640625 -1.957031 4.484375 -1.53125 C 4.328125 -1.113281 4.128906 -0.789062 3.890625 -0.5625 C 3.410156 -0.101562 2.875 0.125 2.28125 0.125 C 1.695312 0.125 1.210938 -0.125 0.828125 -0.625 C 0.453125 -1.125 0.265625 -1.8125 0.265625 -2.6875 C 0.265625 -3.25 0.335938 -3.734375 0.484375 -4.140625 C 0.640625 -4.554688 0.84375 -4.878906 1.09375 -5.109375 C 1.570312 -5.546875 2.101562 -5.765625 2.6875 -5.765625 Z M 3.78125 -2.828125 C 3.78125 -3.503906 3.648438 -4.078125 3.390625 -4.546875 C 3.128906 -5.015625 2.800781 -5.25 2.40625 -5.25 C 2.007812 -5.25 1.695312 -5.035156 1.46875 -4.609375 C 1.25 -4.179688 1.140625 -3.601562 1.140625 -2.875 C 1.140625 -2.15625 1.265625 -1.550781 1.515625 -1.0625 C 1.773438 -0.582031 2.085938 -0.34375 2.453125 -0.34375 C 3.335938 -0.34375 3.78125 -1.171875 3.78125 -2.828125 Z M 3.78125 -2.828125 "/></g></g></g><g fill="#000000" fill-opacity="1"><g transform="translate(190.684156, 125.357896)"><g><path d="M 4.828125 -1.3125 L 4.828125 -0.6875 L 3.6875 -0.6875 L 3.6875 1 L 2.859375 1 L 2.859375 -0.6875 L -0.015625 -0.6875 L -0.015625 -1.125 L 2.859375 -5.609375 L 3.6875 -5.609375 L 3.6875 -1.3125 Z M 2.859375 -1.3125 L 2.859375 -4.984375 L 0.5625 -1.3125 Z M 2.859375 -1.3125 "/></g></g></g><g fill="#000000" fill-opacity="1"><g transform="translate(201.198809, 125.357896)"><g><path d="M 0.859375 -0.046875 C 0.753906 -0.148438 0.703125 -0.28125 0.703125 -0.4375 C 0.703125 -0.59375 0.753906 -0.722656 0.859375 -0.828125 C 0.960938 -0.941406 1.09375 -1 1.25 -1 C 1.40625 -1 1.535156 -0.941406 1.640625 -0.828125 C 1.753906 -0.722656 1.8125 -0.59375 1.8125 -0.4375 C 1.8125 -0.28125 1.753906 -0.148438 1.640625 -0.046875 C 1.535156 0.0546875 1.40625 0.109375 1.25 0.109375 C 1.09375 0.109375 0.960938 0.0546875 0.859375 -0.046875 Z M 0.859375 -0.046875 "/></g></g></g><g fill="#000000" fill-opacity="1"><g transform="translate(209.217733, 125.357896)"><g><path d="M 4.296875 -4.078125 C 4.296875 -3.734375 4.125 -3.316406 3.78125 -2.828125 C 3.164062 -2.003906 2.367188 -1.253906 1.390625 -0.578125 L 1.390625 -0.515625 L 4.4375 -0.671875 L 4.4375 0 L 0.5625 0 L 0.5625 -0.484375 C 1.25 -0.898438 1.898438 -1.460938 2.515625 -2.171875 C 3.128906 -2.878906 3.4375 -3.507812 3.4375 -4.0625 C 3.4375 -4.625 3.160156 -5.015625 2.609375 -5.234375 C 2.140625 -5.234375 1.597656 -5.140625 0.984375 -4.953125 L 0.78125 -5.578125 C 1.238281 -5.722656 1.71875 -5.796875 2.21875 -5.796875 C 2.957031 -5.796875 3.488281 -5.628906 3.8125 -5.296875 C 4.132812 -4.960938 4.296875 -4.554688 4.296875 -4.078125 Z M 4.296875 -4.078125 "/></g></g></g><g fill="#000000" fill-opacity="1"><g transform="translate(219.732386, 125.357896)"><g><path d="M 2.6875 -5.765625 C 3.269531 -5.765625 3.753906 -5.519531 4.140625 -5.03125 C 4.523438 -4.550781 4.71875 -3.875 4.71875 -3 C 4.71875 -2.445312 4.640625 -1.957031 4.484375 -1.53125 C 4.328125 -1.113281 4.128906 -0.789062 3.890625 -0.5625 C 3.410156 -0.101562 2.875 0.125 2.28125 0.125 C 1.695312 0.125 1.210938 -0.125 0.828125 -0.625 C 0.453125 -1.125 0.265625 -1.8125 0.265625 -2.6875 C 0.265625 -3.25 0.335938 -3.734375 0.484375 -4.140625 C 0.640625 -4.554688 0.84375 -4.878906 1.09375 -5.109375 C 1.570312 -5.546875 2.101562 -5.765625 2.6875 -5.765625 Z M 3.78125 -2.828125 C 3.78125 -3.503906 3.648438 -4.078125 3.390625 -4.546875 C 3.128906 -5.015625 2.800781 -5.25 2.40625 -5.25 C 2.007812 -5.25 1.695312 -5.035156 1.46875 -4.609375 C 1.25 -4.179688 1.140625 -3.601562 1.140625 -2.875 C 1.140625 -2.15625 1.265625 -1.550781 1.515625 -1.0625 C 1.773438 -0.582031 2.085938 -0.34375 2.453125 -0.34375 C 3.335938 -0.34375 3.78125 -1.171875 3.78125 -2.828125 Z M 3.78125 -2.828125 "/></g></g></g><g fill="#000000" fill-opacity="1"><g transform="translate(230.247039, 125.357896)"><g><path d="M 4.296875 -4.078125 C 4.296875 -3.734375 4.125 -3.316406 3.78125 -2.828125 C 3.164062 -2.003906 2.367188 -1.253906 1.390625 -0.578125 L 1.390625 -0.515625 L 4.4375 -0.671875 L 4.4375 0 L 0.5625 0 L 0.5625 -0.484375 C 1.25 -0.898438 1.898438 -1.460938 2.515625 -2.171875 C 3.128906 -2.878906 3.4375 -3.507812 3.4375 -4.0625 C 3.4375 -4.625 3.160156 -5.015625 2.609375 -5.234375 C 2.140625 -5.234375 1.597656 -5.140625 0.984375 -4.953125 L 0.78125 -5.578125 C 1.238281 -5.722656 1.71875 -5.796875 2.21875 -5.796875 C 2.957031 -5.796875 3.488281 -5.628906 3.8125 -5.296875 C 4.132812 -4.960938 4.296875 -4.554688 4.296875 -4.078125 Z M 4.296875 -4.078125 "/></g></g></g><g fill="#000000" fill-opacity="1"><g transform="translate(240.761692, 125.357896)"><g><path d="M 1.34375 -3.140625 C 1.6875 -3.585938 2.144531 -3.8125 2.71875 -3.8125 C 3.289062 -3.8125 3.742188 -3.632812 4.078125 -3.28125 C 4.410156 -2.9375 4.578125 -2.476562 4.578125 -1.90625 C 4.578125 -1.539062 4.515625 -1.222656 4.390625 -0.953125 C 4.265625 -0.679688 4.097656 -0.46875 3.890625 -0.3125 C 3.472656 -0.0195312 3 0.125 2.46875 0.125 C 1.8125 0.125 1.300781 -0.160156 0.9375 -0.734375 C 0.582031 -1.316406 0.40625 -2.050781 0.40625 -2.9375 C 0.40625 -4.082031 0.691406 -5 1.265625 -5.6875 C 1.835938 -6.382812 2.472656 -6.734375 3.171875 -6.734375 C 3.515625 -6.734375 3.921875 -6.671875 4.390625 -6.546875 L 4.1875 -5.90625 C 3.570312 -6.09375 3.09375 -6.1875 2.75 -6.1875 C 2.332031 -6.03125 1.988281 -5.664062 1.71875 -5.09375 C 1.457031 -4.53125 1.3125 -3.878906 1.28125 -3.140625 Z M 1.28125 -2.703125 C 1.28125 -2.078125 1.390625 -1.519531 1.609375 -1.03125 C 1.828125 -0.550781 2.101562 -0.3125 2.4375 -0.3125 C 2.78125 -0.3125 3.066406 -0.460938 3.296875 -0.765625 C 3.523438 -1.066406 3.640625 -1.429688 3.640625 -1.859375 C 3.640625 -2.710938 3.28125 -3.210938 2.5625 -3.359375 C 2.332031 -3.328125 2.113281 -3.265625 1.90625 -3.171875 C 1.695312 -3.078125 1.539062 -2.984375 1.4375 -2.890625 C 1.332031 -2.796875 1.28125 -2.734375 1.28125 -2.703125 Z M 1.28125 -2.703125 "/></g></g></g></svg>