<svg xmlns="http://www.w3.org/2000/svg" xmlns:xlink="http://www.w3.org/1999/xlink" width="500" zoomAndPan="magnify" viewBox="0 0 375 374.999991" height="500" preserveAspectRatio="xMidYMid meet" version="1.0"><defs><g/><clipPath id="d5db004017"><path d="M 250.691406 142 L 314 142 L 314 247 L 250.691406 247 Z M 250.691406 142 " clip-rule="nonzero"/></clipPath></defs><g fill="#000000" fill-opacity="1"><g transform="translate(66.857992, 277.623761)"><g><path d="M 16.78125 -5.546875 L 6.765625 4.640625 L 9.703125 7.15625 L 8.515625 8.375 L 1.375 1.34375 L 2.5625 0.125 L 5.140625 3.03125 L 13.453125 -5.421875 L 9.546875 -6.640625 L 10 -8.40625 L 16.71875 -5.625 Z M 16.78125 -5.546875 "/></g></g></g><g fill="#000000" fill-opacity="1"><g transform="translate(89.287888, 297.590958)"><g><path d="M 12.875 4.390625 L 11.921875 5.8125 L 9.359375 4.078125 L 6.78125 7.875 L 4.890625 6.59375 L 7.46875 2.796875 L 1.015625 -1.5625 L 1.671875 -2.53125 L 14.96875 -8.28125 L 16.859375 -7 L 10.3125 2.65625 Z M 8.421875 1.375 L 14 -6.859375 L 3.28125 -2.109375 Z M 8.421875 1.375 "/></g></g></g><g fill="#000000" fill-opacity="1"><g transform="translate(114.85225, 312.988284)"><g><path d="M 2.171875 0.84375 C 2.035156 0.46875 2.054688 0.09375 2.234375 -0.28125 C 2.410156 -0.65625 2.691406 -0.921875 3.078125 -1.078125 C 3.460938 -1.234375 3.84375 -1.222656 4.21875 -1.046875 C 4.59375 -0.867188 4.851562 -0.578125 5 -0.171875 C 5.144531 0.222656 5.128906 0.609375 4.953125 0.984375 C 4.773438 1.359375 4.488281 1.613281 4.09375 1.75 C 3.707031 1.882812 3.328125 1.863281 2.953125 1.6875 C 2.578125 1.507812 2.316406 1.226562 2.171875 0.84375 Z M 2.171875 0.84375 "/></g></g></g><g fill="#000000" fill-opacity="1"><g transform="translate(136.211108, 321.749886)"><g><path d="M 11.25 -13.109375 C 12.789062 -12.679688 13.882812 -11.691406 14.53125 -10.140625 C 15.175781 -8.597656 15.175781 -6.691406 14.53125 -4.421875 C 14.125 -2.953125 13.5625 -1.71875 12.84375 -0.71875 C 12.132812 0.28125 11.375 0.984375 10.5625 1.390625 C 8.976562 2.222656 7.421875 2.421875 5.890625 1.984375 C 4.359375 1.554688 3.273438 0.550781 2.640625 -1.03125 C 2.003906 -2.625 2.003906 -4.5625 2.640625 -6.84375 C 3.054688 -8.300781 3.613281 -9.515625 4.3125 -10.484375 C 5.019531 -11.460938 5.78125 -12.160156 6.59375 -12.578125 C 8.164062 -13.359375 9.71875 -13.535156 11.25 -13.109375 Z M 11.984375 -4.609375 C 12.472656 -6.378906 12.550781 -7.972656 12.21875 -9.390625 C 11.894531 -10.816406 11.210938 -11.675781 10.171875 -11.96875 C 9.128906 -12.257812 8.15625 -11.929688 7.25 -10.984375 C 6.351562 -10.035156 5.632812 -8.609375 5.09375 -6.703125 C 4.5625 -4.804688 4.453125 -3.132812 4.765625 -1.6875 C 5.085938 -0.238281 5.722656 0.613281 6.671875 0.875 C 8.992188 1.53125 10.765625 -0.296875 11.984375 -4.609375 Z M 11.984375 -4.609375 "/></g></g></g><g fill="#000000" fill-opacity="1"><g transform="translate(165.493603, 328.407432)"><g><path d="M 13.40625 -2.375 L 13.25 -0.6875 L 10.15625 -0.96875 L 9.734375 3.609375 L 7.46875 3.40625 L 7.890625 -1.171875 L 0.140625 -1.875 L 0.25 -3.015625 L 9.109375 -14.484375 L 11.375 -14.28125 L 10.3125 -2.65625 Z M 8.046875 -2.859375 L 8.953125 -12.765625 L 1.875 -3.421875 Z M 8.046875 -2.859375 "/></g></g></g><g fill="#000000" fill-opacity="1"><g transform="translate(195.314394, 329.547785)"><g><path d="M 2.3125 -0.28125 C 2.007812 -0.550781 1.84375 -0.894531 1.8125 -1.3125 C 1.789062 -1.726562 1.910156 -2.097656 2.171875 -2.421875 C 2.441406 -2.742188 2.78125 -2.921875 3.1875 -2.953125 C 3.601562 -2.984375 3.96875 -2.859375 4.28125 -2.578125 C 4.601562 -2.296875 4.773438 -1.945312 4.796875 -1.53125 C 4.828125 -1.113281 4.703125 -0.75 4.421875 -0.4375 C 4.148438 -0.132812 3.804688 0.03125 3.390625 0.0625 C 2.984375 0.09375 2.625 -0.0195312 2.3125 -0.28125 Z M 2.3125 -0.28125 "/></g></g></g><g fill="#000000" fill-opacity="1"><g transform="translate(218.249696, 326.911134)"><g><path d="M 8.84375 -13.4375 C 9.0625 -12.550781 8.851562 -11.351562 8.21875 -9.84375 C 7.132812 -7.269531 5.507812 -4.785156 3.34375 -2.390625 L 3.375 -2.234375 L 11.328125 -4.515625 L 11.734375 -2.75 L 1.46875 -0.34375 L 1.171875 -1.609375 C 2.734375 -3.148438 4.109375 -5.046875 5.296875 -7.296875 C 6.484375 -9.546875 6.90625 -11.40625 6.5625 -12.875 C 6.21875 -14.351562 5.253906 -15.21875 3.671875 -15.46875 C 2.421875 -15.175781 1.039062 -14.585938 -0.46875 -13.703125 L -1.375 -15.234375 C -0.269531 -15.890625 0.941406 -16.375 2.265625 -16.6875 C 4.242188 -17.144531 5.757812 -17.039062 6.8125 -16.375 C 7.863281 -15.707031 8.539062 -14.726562 8.84375 -13.4375 Z M 8.84375 -13.4375 "/></g></g></g><g fill="#000000" fill-opacity="1"><g transform="translate(247.107765, 318.604539)"><g><path d="M 0.40625 -17.265625 C 1.863281 -17.910156 3.328125 -17.835938 4.796875 -17.046875 C 6.273438 -16.253906 7.488281 -14.773438 8.4375 -12.609375 C 9.050781 -11.210938 9.398438 -9.90625 9.484375 -8.6875 C 9.566406 -7.476562 9.421875 -6.457031 9.046875 -5.625 C 8.347656 -3.976562 7.269531 -2.832031 5.8125 -2.1875 C 4.351562 -1.550781 2.875 -1.644531 1.375 -2.46875 C -0.113281 -3.300781 -1.332031 -4.800781 -2.28125 -6.96875 C -2.894531 -8.363281 -3.234375 -9.660156 -3.296875 -10.859375 C -3.367188 -12.054688 -3.226562 -13.070312 -2.875 -13.90625 C -2.144531 -15.507812 -1.050781 -16.628906 0.40625 -17.265625 Z M 6.34375 -11.15625 C 5.601562 -12.84375 4.65625 -14.128906 3.5 -15.015625 C 2.34375 -15.898438 1.269531 -16.125 0.28125 -15.6875 C -0.707031 -15.257812 -1.25 -14.390625 -1.34375 -13.078125 C -1.445312 -11.773438 -1.101562 -10.21875 -0.3125 -8.40625 C 0.476562 -6.601562 1.457031 -5.242188 2.625 -4.328125 C 3.789062 -3.410156 4.828125 -3.148438 5.734375 -3.546875 C 7.941406 -4.515625 8.144531 -7.050781 6.34375 -11.15625 Z M 6.34375 -11.15625 "/></g></g></g><g fill="#000000" fill-opacity="1"><g transform="translate(273.980801, 305.202022)"><g><path d="M 3.46875 -15.703125 C 3.976562 -14.941406 4.210938 -13.75 4.171875 -12.125 C 4.066406 -9.332031 3.425781 -6.4375 2.25 -3.4375 L 2.359375 -3.296875 L 8.953125 -8.25 L 9.96875 -6.75 L 1.25 -0.84375 L 0.515625 -1.921875 C 1.429688 -3.921875 2.039062 -6.179688 2.34375 -8.703125 C 2.644531 -11.234375 2.367188 -13.125 1.515625 -14.375 C 0.671875 -15.632812 -0.523438 -16.097656 -2.078125 -15.765625 C -3.140625 -15.046875 -4.222656 -14.003906 -5.328125 -12.640625 L -6.734375 -13.75 C -5.921875 -14.757812 -4.953125 -15.644531 -3.828125 -16.40625 C -2.148438 -17.539062 -0.703125 -17.976562 0.515625 -17.71875 C 1.742188 -17.46875 2.726562 -16.796875 3.46875 -15.703125 Z M 3.46875 -15.703125 "/></g></g></g><g fill="#000000" fill-opacity="1"><g transform="translate(297.977508, 287.148057)"><g><path d="M -3.359375 -8.625 C -3.546875 -10.175781 -3.085938 -11.492188 -1.984375 -12.578125 C -0.890625 -13.660156 0.3125 -14.179688 1.625 -14.140625 C 2.945312 -14.109375 4.148438 -13.539062 5.234375 -12.4375 C 5.929688 -11.71875 6.414062 -10.972656 6.6875 -10.203125 C 6.96875 -9.441406 7.039062 -8.710938 6.90625 -8.015625 C 6.675781 -6.660156 6.050781 -5.484375 5.03125 -4.484375 C 3.738281 -3.210938 2.191406 -2.789062 0.390625 -3.21875 C -1.398438 -3.644531 -3.140625 -4.71875 -4.828125 -6.4375 C -7.023438 -8.664062 -8.222656 -11 -8.421875 -13.4375 C -8.617188 -15.882812 -8.050781 -17.765625 -6.71875 -19.078125 C -6.039062 -19.742188 -5.125 -20.382812 -3.96875 -21 L -3.15625 -19.390625 C -4.695312 -18.597656 -5.804688 -17.875 -6.484375 -17.21875 C -6.972656 -16.132812 -6.929688 -14.785156 -6.359375 -13.171875 C -5.796875 -11.554688 -4.832031 -10.003906 -3.46875 -8.515625 Z M -2.65625 -7.6875 C -1.457031 -6.476562 -0.191406 -5.613281 1.140625 -5.09375 C 2.472656 -4.570312 3.46875 -4.632812 4.125 -5.28125 C 4.78125 -5.9375 5.039062 -6.765625 4.90625 -7.765625 C 4.769531 -8.773438 4.289062 -9.703125 3.46875 -10.546875 C 1.84375 -12.191406 0.210938 -12.472656 -1.421875 -11.390625 C -1.828125 -10.890625 -2.140625 -10.347656 -2.359375 -9.765625 C -2.578125 -9.179688 -2.695312 -8.703125 -2.71875 -8.328125 C -2.738281 -7.960938 -2.71875 -7.75 -2.65625 -7.6875 Z M -2.65625 -7.6875 "/></g></g></g><g fill="#000000" fill-opacity="1"><g transform="translate(170.846799, 212.095613)"><g><path d="M 107.78125 -21.25 C 108.269531 -20.90625 108.546875 -20.453125 108.609375 -19.890625 C 108.679688 -19.335938 108.578125 -18.859375 108.296875 -18.453125 C 107.890625 -17.898438 107.335938 -17.625 106.640625 -17.625 C 106.367188 -17.625 106.09375 -17.691406 105.8125 -17.828125 C 105.050781 -17.960938 102.753906 -18.113281 98.921875 -18.28125 C 95.085938 -18.457031 90.546875 -18.648438 85.296875 -18.859375 C 83.847656 -12.785156 82.414062 -6.6875 81 -0.5625 C 79.582031 5.550781 78.285156 11.4375 77.109375 17.09375 C 75.378906 25.1875 74.046875 31.769531 73.109375 36.84375 C 72.179688 41.925781 71.5625 45.863281 71.25 48.65625 C 70.9375 51.457031 70.78125 53.476562 70.78125 54.71875 C 71.0625 54.238281 71.375 53.722656 71.71875 53.171875 C 72 52.679688 72.414062 52.367188 72.96875 52.234375 C 73.519531 52.097656 74 52.164062 74.40625 52.4375 C 74.894531 52.71875 75.207031 53.113281 75.34375 53.625 C 75.476562 54.144531 75.410156 54.648438 75.140625 55.140625 C 74.453125 56.378906 73.675781 57.535156 72.8125 58.609375 C 71.945312 59.679688 70.992188 60.21875 69.953125 60.21875 C 69.609375 60.21875 69.265625 60.148438 68.921875 60.015625 C 68.296875 59.734375 67.789062 59.160156 67.40625 58.296875 C 67.03125 57.429688 66.84375 55.992188 66.84375 53.984375 C 66.84375 51.984375 67.101562 49.1875 67.625 45.59375 C 68.144531 42.007812 68.957031 37.347656 70.0625 31.609375 C 71.164062 25.878906 72.632812 18.867188 74.46875 10.578125 C 76.300781 2.285156 78.5625 -7.5625 81.25 -18.96875 C 77.800781 -19.03125 74.28125 -19.113281 70.6875 -19.21875 C 67.09375 -19.320312 63.601562 -19.410156 60.21875 -19.484375 C 59.382812 -19.554688 58.585938 -19.59375 57.828125 -19.59375 C 57.066406 -19.59375 56.304688 -19.59375 55.546875 -19.59375 C 51.128906 -11.226562 46.847656 -3.382812 42.703125 3.9375 C 38.554688 11.257812 34.753906 17.269531 31.296875 21.96875 C 29.160156 24.800781 27.140625 26.664062 25.234375 27.5625 C 23.335938 28.46875 21.644531 28.816406 20.15625 28.609375 C 18.675781 28.398438 17.484375 28.019531 16.578125 27.46875 C 14.296875 26.15625 12.359375 24.046875 10.765625 21.140625 C 9.179688 18.242188 7.90625 14.820312 6.9375 10.875 C 5.976562 6.9375 5.410156 2.773438 5.234375 -1.609375 C 5.054688 -5.992188 5.296875 -10.328125 5.953125 -14.609375 C 6.609375 -18.890625 7.695312 -22.796875 9.21875 -26.328125 C 12.332031 -33.367188 16.875 -38.097656 22.84375 -40.515625 C 28.820312 -42.941406 35.851562 -42.875 43.9375 -40.3125 C 44.488281 -40.175781 44.882812 -39.863281 45.125 -39.375 C 45.375 -38.894531 45.394531 -38.378906 45.1875 -37.828125 C 45.050781 -37.347656 44.738281 -36.96875 44.25 -36.6875 C 43.769531 -36.414062 43.253906 -36.378906 42.703125 -36.578125 C 40.285156 -37.335938 37.691406 -37.851562 34.921875 -38.125 C 32.160156 -38.40625 29.414062 -38.21875 26.6875 -37.5625 C 23.957031 -36.90625 21.398438 -35.554688 19.015625 -33.515625 C 16.628906 -31.484375 14.570312 -28.535156 12.84375 -24.671875 C 11.257812 -21.078125 10.191406 -17.257812 9.640625 -13.21875 C 9.085938 -9.175781 8.945312 -5.148438 9.21875 -1.140625 C 9.5 2.867188 10.070312 6.617188 10.9375 10.109375 C 11.800781 13.597656 12.890625 16.566406 14.203125 19.015625 C 15.515625 21.472656 16.960938 23.148438 18.546875 24.046875 C 21.453125 25.703125 24.632812 24.21875 28.09375 19.59375 C 31.332031 15.164062 34.921875 9.5 38.859375 2.59375 C 42.796875 -4.3125 46.875 -11.738281 51.09375 -19.6875 C 42.664062 -19.96875 35.910156 -20.191406 30.828125 -20.359375 C 25.753906 -20.535156 22.695312 -20.726562 21.65625 -20.9375 C 21.101562 -21.070312 20.671875 -21.363281 20.359375 -21.8125 C 20.054688 -22.257812 19.972656 -22.757812 20.109375 -23.3125 C 20.171875 -23.863281 20.441406 -24.28125 20.921875 -24.5625 C 21.410156 -24.84375 21.898438 -24.945312 22.390625 -24.875 C 23.078125 -24.738281 24.921875 -24.597656 27.921875 -24.453125 C 30.929688 -24.316406 34.644531 -24.179688 39.0625 -24.046875 C 43.488281 -23.910156 48.191406 -23.769531 53.171875 -23.625 C 55.453125 -28.113281 57.75 -32.617188 60.0625 -37.140625 C 62.375 -41.671875 64.671875 -46.148438 66.953125 -50.578125 C 72.484375 -61.566406 77.113281 -70.632812 80.84375 -77.78125 C 84.570312 -84.9375 87.644531 -90.484375 90.0625 -94.421875 C 92.476562 -98.359375 94.460938 -101.035156 96.015625 -102.453125 C 97.578125 -103.867188 98.941406 -104.367188 100.109375 -103.953125 C 101.359375 -103.460938 102.085938 -102.441406 102.296875 -100.890625 C 102.503906 -99.335938 102.503906 -97.421875 102.296875 -95.140625 C 101.878906 -90.648438 100.671875 -83.945312 98.671875 -75.03125 C 98.046875 -72.0625 97.160156 -68.257812 96.015625 -63.625 C 94.878906 -59 93.65625 -53.890625 92.34375 -48.296875 C 91.375 -44.359375 90.367188 -40.226562 89.328125 -35.90625 C 88.296875 -31.59375 87.265625 -27.222656 86.234375 -22.796875 C 92.035156 -22.585938 96.421875 -22.414062 99.390625 -22.28125 C 102.359375 -22.144531 104.429688 -21.988281 105.609375 -21.8125 C 106.785156 -21.644531 107.507812 -21.457031 107.78125 -21.25 Z M 60.3125 -23.53125 C 64.738281 -23.382812 68.75 -23.257812 72.34375 -23.15625 C 75.9375 -23.0625 79.21875 -22.976562 82.1875 -22.90625 C 84.050781 -30.914062 86.125 -39.691406 88.40625 -49.234375 C 89.789062 -54.828125 91.035156 -59.9375 92.140625 -64.5625 C 93.242188 -69.195312 94.140625 -72.960938 94.828125 -75.859375 C 95.929688 -81.109375 96.757812 -85.320312 97.3125 -88.5 C 97.863281 -91.6875 98.207031 -94.125 98.34375 -95.8125 C 98.488281 -97.507812 98.523438 -98.703125 98.453125 -99.390625 C 97.285156 -98.210938 95.664062 -95.914062 93.59375 -92.5 C 91.519531 -89.082031 89.1875 -84.953125 86.59375 -80.109375 C 84 -75.273438 81.316406 -70.128906 78.546875 -64.671875 C 75.785156 -59.210938 73.09375 -53.925781 70.46875 -48.8125 C 68.394531 -44.664062 66.269531 -40.46875 64.09375 -36.21875 C 61.925781 -31.96875 59.769531 -27.738281 57.625 -23.53125 C 58.039062 -23.53125 58.472656 -23.53125 58.921875 -23.53125 C 59.367188 -23.53125 59.832031 -23.53125 60.3125 -23.53125 Z M 60.3125 -23.53125 "/></g></g></g><g clip-path="url(#d5db004017)"><path fill="#d45454" d="M 312.902344 149.382812 C 312.257812 146.914062 310.570312 144.265625 308.222656 143.097656 C 303.644531 140.871094 298.707031 143.863281 295.734375 147.355469 C 293.886719 149.542969 292.339844 152.035156 290.976562 154.542969 C 289.511719 157.214844 288.246094 160.003906 287.101562 162.835938 C 285.917969 165.746094 284.890625 168.71875 284.007812 171.730469 C 283.265625 167.632812 281.941406 163.679688 279.53125 160.183594 C 278.328125 158.457031 276.921875 156.832031 275.355469 155.425781 C 274.089844 154.300781 272.703125 153.238281 271.140625 152.574219 C 269.855469 152.015625 268.449219 151.632812 267.042969 151.792969 C 265.578125 151.953125 264.253906 152.574219 263.207031 153.621094 C 260.738281 156.109375 260.195312 160.003906 260.035156 163.335938 C 259.835938 168.097656 260.015625 172.875 260.597656 177.613281 C 261.179688 182.332031 261.902344 187.230469 262.988281 191.96875 C 264.050781 196.605469 265.417969 201.183594 267.003906 205.660156 C 268.589844 210.136719 270.417969 214.515625 272.625 218.730469 C 273.148438 219.714844 273.6875 220.660156 274.25 221.621094 C 271.78125 224.734375 269.292969 227.847656 266.742188 230.898438 C 262.925781 235.4375 258.792969 239.8125 254.234375 243.609375 C 253.167969 244.492188 252.105469 245.355469 250.980469 246.15625 C 250.71875 246.339844 250.941406 246.738281 251.222656 246.578125 C 256.542969 243.769531 260.960938 239.53125 265.074219 235.195312 C 267.144531 233.007812 269.191406 230.796875 271.21875 228.550781 C 272.664062 226.964844 274.128906 225.417969 275.597656 223.851562 C 275.796875 224.171875 275.996094 224.515625 276.199219 224.835938 C 277.402344 226.84375 278.585938 228.851562 279.953125 230.777344 C 280.273438 231.238281 280.617188 231.703125 280.9375 232.164062 C 281.277344 232.644531 281.699219 233.105469 282 233.609375 C 282.300781 234.109375 283.085938 233.648438 282.785156 233.148438 C 282.222656 232.183594 281.820312 231.078125 281.316406 230.074219 C 280.796875 229.050781 280.253906 228.027344 279.671875 227.023438 C 278.769531 225.476562 277.886719 223.910156 277.042969 222.324219 C 277.261719 222.085938 277.484375 221.863281 277.683594 221.621094 C 279.914062 219.214844 282.121094 216.804688 284.289062 214.335938 C 286.5 211.824219 288.667969 209.296875 290.65625 206.625 C 294.449219 201.523438 297.722656 196.085938 300.875 190.5625 C 303.925781 185.242188 306.714844 179.761719 308.824219 174 C 309.910156 171.046875 310.792969 168.035156 311.453125 164.984375 C 311.976562 162.59375 312.539062 160.183594 312.921875 157.777344 C 313.320312 155.027344 313.601562 152.132812 312.902344 149.382812 Z M 308.90625 154.945312 C 308.886719 155.265625 308.84375 155.566406 308.804688 155.890625 C 308.785156 156.007812 308.785156 156.109375 308.765625 156.230469 C 308.746094 156.308594 308.746094 156.390625 308.722656 156.492188 C 308.625 157.113281 308.523438 157.734375 308.402344 158.359375 C 308.183594 159.5625 307.921875 160.746094 307.660156 161.953125 C 307.058594 164.703125 306.457031 167.414062 305.613281 170.105469 C 305.171875 171.507812 304.6875 172.914062 304.148438 174.300781 C 303.886719 175.003906 303.605469 175.683594 303.324219 176.367188 C 303.304688 176.40625 303.285156 176.46875 303.261719 176.527344 C 303.261719 176.507812 303.285156 176.488281 303.285156 176.46875 C 303.222656 176.648438 303.121094 176.828125 303.0625 176.992188 C 302.921875 177.3125 302.78125 177.652344 302.640625 177.972656 C 301.4375 180.664062 300.109375 183.273438 298.707031 185.863281 C 295.792969 191.207031 292.800781 196.566406 289.371094 201.605469 C 287.601562 204.195312 285.734375 206.726562 283.886719 209.253906 C 283.667969 209.554688 283.425781 209.878906 283.207031 210.179688 C 283.105469 210.320312 282.984375 210.460938 282.882812 210.601562 C 282.824219 210.679688 282.785156 210.742188 282.722656 210.820312 C 282.703125 210.863281 282.441406 211.183594 282.542969 211.082031 C 282.101562 211.644531 281.640625 212.285156 281.199219 212.828125 C 280.214844 214.074219 279.230469 215.320312 278.246094 216.5625 C 277.382812 217.628906 276.539062 218.710938 275.675781 219.796875 C 273.847656 216.222656 272.023438 212.6875 270.636719 208.894531 C 267.523438 200.320312 265.195312 191.285156 264.011719 182.289062 C 263.410156 177.734375 263.207031 173.15625 263.226562 168.558594 C 263.25 166.328125 263.269531 164.058594 263.53125 161.851562 C 263.53125 161.8125 263.550781 161.691406 263.550781 161.632812 C 263.550781 161.589844 263.570312 161.550781 263.570312 161.492188 C 263.609375 161.289062 263.628906 161.070312 263.671875 160.867188 C 263.75 160.425781 263.851562 160.003906 263.949219 159.582031 C 264.050781 159.203125 264.152344 158.839844 264.292969 158.480469 C 264.351562 158.339844 264.394531 158.199219 264.453125 158.058594 C 264.492188 157.976562 264.511719 157.917969 264.554688 157.835938 C 264.695312 157.554688 264.835938 157.253906 265.015625 156.992188 C 265.074219 156.894531 265.15625 156.773438 265.214844 156.671875 C 265.214844 156.671875 265.257812 156.632812 265.277344 156.570312 C 265.296875 156.550781 265.316406 156.53125 265.335938 156.511719 C 265.515625 156.308594 265.679688 156.128906 265.878906 155.949219 C 265.898438 155.929688 265.917969 155.910156 265.957031 155.890625 C 266.058594 155.828125 266.140625 155.769531 266.238281 155.707031 C 266.339844 155.648438 266.441406 155.585938 266.542969 155.546875 C 266.761719 155.488281 267.003906 155.425781 267.222656 155.367188 C 267.34375 155.367188 267.464844 155.347656 267.585938 155.347656 C 267.726562 155.347656 267.867188 155.347656 268.007812 155.367188 C 268.027344 155.367188 268.046875 155.367188 268.066406 155.367188 C 268.328125 155.425781 268.570312 155.46875 268.828125 155.546875 C 268.992188 155.585938 269.132812 155.648438 269.273438 155.707031 C 269.332031 155.726562 269.371094 155.75 269.390625 155.75 C 270.035156 156.03125 270.636719 156.390625 271.21875 156.792969 C 271.378906 156.914062 271.539062 157.035156 271.722656 157.152344 C 271.742188 157.152344 271.742188 157.171875 271.761719 157.195312 C 271.78125 157.214844 271.820312 157.234375 271.839844 157.273438 C 272.183594 157.554688 272.523438 157.855469 272.867188 158.15625 C 273.589844 158.820312 274.25 159.523438 274.894531 160.265625 C 275.054688 160.445312 275.214844 160.628906 275.355469 160.808594 C 275.414062 160.886719 275.496094 160.96875 275.554688 161.046875 C 275.554688 161.046875 275.65625 161.1875 275.714844 161.25 C 275.777344 161.328125 275.835938 161.410156 275.835938 161.410156 C 275.898438 161.492188 275.957031 161.570312 276.019531 161.652344 C 276.179688 161.871094 276.339844 162.113281 276.5 162.355469 C 277.023438 163.15625 277.503906 164 277.925781 164.863281 C 278.027344 165.0625 278.125 165.265625 278.226562 165.484375 C 278.285156 165.605469 278.328125 165.707031 278.386719 165.828125 C 278.40625 165.867188 278.425781 165.925781 278.445312 165.96875 C 278.628906 166.390625 278.789062 166.832031 278.949219 167.273438 C 279.269531 168.175781 279.550781 169.101562 279.773438 170.042969 C 280.011719 170.988281 280.214844 171.929688 280.375 172.894531 C 280.453125 173.355469 280.535156 173.796875 280.574219 174.261719 C 280.515625 173.777344 280.617188 174.5625 280.617188 174.679688 C 280.636719 174.941406 280.675781 175.183594 280.695312 175.445312 C 280.898438 177.390625 280.976562 179.339844 280.996094 181.285156 C 280.996094 182.25 280.976562 183.195312 280.9375 184.15625 C 280.898438 185.140625 281.71875 185.964844 282.644531 186.085938 C 283.566406 186.207031 284.570312 185.644531 284.792969 184.679688 C 286.054688 179.199219 287.441406 173.777344 289.308594 168.476562 C 289.792969 167.113281 290.292969 165.765625 290.835938 164.441406 C 290.894531 164.28125 290.957031 164.140625 291.015625 163.980469 C 291.054688 163.878906 291.097656 163.78125 291.136719 163.679688 C 291.15625 163.617188 291.257812 163.398438 291.277344 163.359375 C 291.355469 163.15625 291.457031 162.957031 291.539062 162.753906 C 291.820312 162.113281 292.101562 161.46875 292.402344 160.847656 C 293.605469 158.296875 294.949219 155.789062 296.496094 153.417969 C 296.859375 152.855469 297.238281 152.316406 297.621094 151.753906 C 297.820312 151.492188 298.003906 151.210938 298.203125 150.949219 C 298.222656 150.929688 298.242188 150.910156 298.265625 150.890625 C 298.34375 150.789062 298.425781 150.6875 298.503906 150.589844 C 299.1875 149.765625 299.96875 149.023438 300.792969 148.320312 C 300.894531 148.238281 300.996094 148.179688 301.09375 148.097656 C 301.316406 147.9375 301.535156 147.796875 301.777344 147.65625 C 301.976562 147.535156 302.160156 147.4375 302.359375 147.316406 C 302.480469 147.253906 302.601562 147.195312 302.699219 147.136719 C 302.742188 147.113281 302.839844 147.074219 302.921875 147.035156 C 302.960938 147.015625 302.980469 147.015625 303.003906 147.015625 C 303.101562 146.972656 303.203125 146.933594 303.304688 146.914062 C 303.542969 146.832031 303.765625 146.773438 304.007812 146.714844 C 304.105469 146.691406 304.1875 146.671875 304.285156 146.652344 C 304.46875 146.632812 304.648438 146.632812 304.847656 146.632812 C 304.96875 146.632812 305.070312 146.632812 305.191406 146.652344 C 305.210938 146.652344 305.230469 146.652344 305.25 146.652344 C 305.289062 146.652344 305.332031 146.671875 305.351562 146.671875 C 305.472656 146.691406 305.570312 146.734375 305.691406 146.753906 C 305.773438 146.773438 305.851562 146.8125 305.953125 146.832031 C 306.132812 146.953125 306.335938 147.035156 306.515625 147.136719 C 306.574219 147.175781 306.636719 147.214844 306.695312 147.253906 C 306.898438 147.4375 307.078125 147.617188 307.257812 147.796875 C 307.320312 147.859375 307.378906 147.9375 307.4375 148 C 307.460938 148.039062 307.5 148.058594 307.519531 148.097656 C 307.699219 148.359375 307.882812 148.621094 308.023438 148.902344 C 308.183594 149.183594 308.324219 149.464844 308.441406 149.746094 C 308.484375 149.867188 308.523438 149.984375 308.5625 150.105469 C 308.644531 150.367188 308.703125 150.609375 308.765625 150.871094 C 308.804688 151.011719 308.824219 151.152344 308.84375 151.3125 C 308.84375 151.332031 308.84375 151.351562 308.84375 151.351562 C 309.027344 152.515625 309.003906 153.742188 308.90625 154.945312 Z M 308.90625 154.945312 " fill-opacity="1" fill-rule="nonzero"/></g><g fill="#000000" fill-opacity="1"><g transform="translate(74.553599, 159.157909)"><g><path d="M 129.765625 -89.4375 C 129.960938 -86.050781 129.785156 -81.578125 129.234375 -76.015625 C 128.679688 -70.453125 127.867188 -64.144531 126.796875 -57.09375 C 125.734375 -50.050781 124.492188 -42.609375 123.078125 -34.765625 C 121.660156 -26.929688 120.222656 -19.039062 118.765625 -11.09375 C 117.804688 -5.5625 116.804688 0.0859375 115.765625 5.859375 C 114.734375 11.628906 113.785156 17.15625 112.921875 22.4375 C 112.054688 27.71875 111.378906 32.378906 110.890625 36.421875 C 110.410156 40.472656 110.207031 43.5 110.28125 45.5 C 110.550781 45.007812 110.859375 44.488281 111.203125 43.9375 C 111.484375 43.457031 111.878906 43.144531 112.390625 43 C 112.910156 42.863281 113.414062 42.9375 113.90625 43.21875 C 114.382812 43.488281 114.691406 43.882812 114.828125 44.40625 C 114.972656 44.925781 114.90625 45.425781 114.625 45.90625 C 113.789062 47.289062 112.890625 48.550781 111.921875 49.6875 C 110.960938 50.832031 109.828125 51.195312 108.515625 50.78125 C 107.753906 50.4375 107.179688 49.691406 106.796875 48.546875 C 106.421875 47.410156 106.285156 45.546875 106.390625 42.953125 C 106.492188 40.367188 106.851562 36.773438 107.46875 32.171875 C 108.09375 27.578125 109.007812 21.6875 110.21875 14.5 C 111.425781 7.320312 113 -1.414062 114.9375 -11.71875 C 116.25 -19.3125 117.59375 -26.976562 118.96875 -34.71875 C 120.351562 -42.457031 121.597656 -49.847656 122.703125 -56.890625 C 123.816406 -63.941406 124.664062 -70.265625 125.25 -75.859375 C 125.832031 -81.460938 126.019531 -85.882812 125.8125 -89.125 C 125.675781 -91.132812 125.398438 -92.601562 124.984375 -93.53125 C 124.578125 -94.46875 124.164062 -94.96875 123.75 -95.03125 C 123.75 -95.03125 123.710938 -95.03125 123.640625 -95.03125 C 122.953125 -95.03125 121.742188 -94.285156 120.015625 -92.796875 C 118.285156 -91.316406 116.125 -88.675781 113.53125 -84.875 C 110.945312 -81.082031 107.890625 -75.695312 104.359375 -68.71875 C 100.773438 -61.53125 96.320312 -51.285156 91 -37.984375 C 85.675781 -24.679688 80.007812 -7.597656 74 13.265625 C 73.65625 14.503906 72.859375 14.988281 71.609375 14.71875 C 70.367188 14.4375 69.851562 13.675781 70.0625 12.4375 C 74.894531 -16.03125 77.484375 -37.414062 77.828125 -51.71875 C 77.972656 -56.132812 77.90625 -59.601562 77.625 -62.125 C 77.351562 -64.65625 77.007812 -66.488281 76.59375 -67.625 C 76.175781 -68.757812 75.8125 -69.484375 75.5 -69.796875 C 75.1875 -70.109375 75 -70.300781 74.9375 -70.375 C 74.863281 -70.375 74.53125 -70.269531 73.9375 -70.0625 C 73.351562 -69.851562 72.4375 -69.160156 71.1875 -67.984375 C 69.945312 -66.804688 68.34375 -64.765625 66.375 -61.859375 C 64.40625 -58.960938 62.039062 -54.851562 59.28125 -49.53125 C 56.519531 -44.21875 53.273438 -37.3125 49.546875 -28.8125 C 45.742188 -20.039062 41.921875 -10.554688 38.078125 -0.359375 C 34.242188 9.828125 30.566406 20.273438 27.046875 30.984375 C 23.523438 41.691406 20.3125 52.195312 17.40625 62.5 C 17.40625 62.5 17.40625 62.53125 17.40625 62.59375 C 16.925781 63.84375 16.425781 64.945312 15.90625 65.90625 C 15.382812 66.875 14.710938 67.359375 13.890625 67.359375 C 13.679688 67.359375 13.4375 67.328125 13.15625 67.265625 C 12.195312 66.921875 11.695312 66.175781 11.65625 65.03125 C 11.625 63.894531 11.78125 62.117188 12.125 59.703125 C 12.601562 56.453125 13.429688 51.785156 14.609375 45.703125 C 16.679688 35.273438 19.722656 20.972656 23.734375 2.796875 C 25.523438 -5.566406 27.335938 -13.804688 29.171875 -21.921875 C 31.003906 -30.035156 32.710938 -37.5625 34.296875 -44.5 C 35.890625 -51.445312 37.273438 -57.410156 38.453125 -62.390625 C 39.628906 -67.367188 40.457031 -70.859375 40.9375 -72.859375 C 42.039062 -77.628906 42.609375 -81.238281 42.640625 -83.6875 C 42.679688 -86.144531 42.476562 -87.851562 42.03125 -88.8125 C 41.582031 -89.78125 41.21875 -90.367188 40.9375 -90.578125 C 40.175781 -91.066406 39.019531 -91 37.46875 -90.375 C 35.914062 -89.75 34.132812 -88.675781 32.125 -87.15625 C 29.4375 -85.082031 26.675781 -82.390625 23.84375 -79.078125 C 21.007812 -75.765625 18.328125 -72.132812 15.796875 -68.1875 C 13.273438 -64.25 11.132812 -60.257812 9.375 -56.21875 C 7.613281 -52.175781 6.40625 -48.289062 5.75 -44.5625 C 5.09375 -40.832031 5.25 -37.550781 6.21875 -34.71875 C 8.21875 -28.78125 13.953125 -25.738281 23.421875 -25.59375 C 23.972656 -25.59375 24.4375 -25.382812 24.8125 -24.96875 C 25.195312 -24.5625 25.390625 -24.082031 25.390625 -23.53125 C 25.390625 -22.976562 25.179688 -22.507812 24.765625 -22.125 C 24.347656 -21.75 23.898438 -21.5625 23.421875 -21.5625 C 23.421875 -21.5625 23.398438 -21.5625 23.359375 -21.5625 C 23.328125 -21.5625 23.3125 -21.5625 23.3125 -21.5625 C 20.757812 -21.625 18.066406 -21.984375 15.234375 -22.640625 C 12.398438 -23.296875 9.828125 -24.46875 7.515625 -26.15625 C 5.203125 -27.851562 3.492188 -30.289062 2.390625 -33.46875 C 1.554688 -36.03125 1.222656 -38.726562 1.390625 -41.5625 C 1.566406 -44.394531 2.066406 -47.207031 2.890625 -50 C 3.722656 -52.800781 4.675781 -55.425781 5.75 -57.875 C 6.820312 -60.332031 7.84375 -62.457031 8.8125 -64.25 C 11.644531 -69.4375 14.925781 -74.378906 18.65625 -79.078125 C 22.382812 -83.773438 26.082031 -87.539062 29.75 -90.375 C 33.269531 -93.070312 36.097656 -94.503906 38.234375 -94.671875 C 40.378906 -94.847656 42.003906 -94.585938 43.109375 -93.890625 C 47.117188 -91.335938 47.671875 -84.015625 44.765625 -71.921875 C 44.003906 -68.742188 43.019531 -64.546875 41.8125 -59.328125 C 40.601562 -54.117188 39.253906 -48.226562 37.765625 -41.65625 C 36.285156 -35.09375 34.71875 -28.164062 33.0625 -20.875 C 31.40625 -13.59375 29.765625 -6.273438 28.140625 1.078125 C 26.515625 8.441406 24.957031 15.5625 23.46875 22.4375 C 21.988281 29.3125 20.695312 35.582031 19.59375 41.25 C 22.21875 32.882812 24.976562 24.519531 27.875 16.15625 C 30.78125 7.800781 33.753906 -0.3125 36.796875 -8.1875 C 39.835938 -16.0625 42.875 -23.488281 45.90625 -30.46875 C 49.914062 -39.65625 53.441406 -47.097656 56.484375 -52.796875 C 59.523438 -58.503906 62.148438 -62.875 64.359375 -65.90625 C 66.566406 -68.945312 68.429688 -71.054688 69.953125 -72.234375 C 71.472656 -73.410156 72.695312 -74.066406 73.625 -74.203125 C 74.5625 -74.335938 75.304688 -74.335938 75.859375 -74.203125 C 76.828125 -73.992188 77.757812 -73.367188 78.65625 -72.328125 C 79.5625 -71.296875 80.304688 -69.550781 80.890625 -67.09375 C 81.472656 -64.644531 81.816406 -61.191406 81.921875 -56.734375 C 82.023438 -52.285156 81.785156 -46.570312 81.203125 -39.59375 C 80.617188 -32.613281 79.632812 -24.046875 78.25 -13.890625 C 82.46875 -26.671875 86.734375 -38.328125 91.046875 -48.859375 C 95.367188 -59.398438 99.566406 -68.453125 103.640625 -76.015625 C 107.710938 -83.585938 111.507812 -89.375 115.03125 -93.375 C 118.5625 -97.382812 121.640625 -99.253906 124.265625 -98.984375 C 127.515625 -98.628906 129.347656 -95.445312 129.765625 -89.4375 Z M 129.765625 -89.4375 "/></g></g></g></svg>